<?xml version="1.0" standalone="no"?>
<!DOCTYPE svg PUBLIC "-//W3C//DTD SVG 1.1//EN" "http://www.w3.org/Graphics/SVG/1.1/DTD/svg11.dtd" >
<svg xmlns="http://www.w3.org/2000/svg">
<metadata></metadata>
<defs>
<font id="f1_secuencia_quad_ffpregular" horiz-adv-x="863" >
<font-face units-per-em="2048" ascent="1638" descent="-410" />
<missing-glyph horiz-adv-x="533" />
<glyph horiz-adv-x="2048" />
<glyph horiz-adv-x="2048" />
<glyph unicode="&#xd;" horiz-adv-x="681" />
<glyph unicode=" "  horiz-adv-x="533" />
<glyph unicode="&#x09;" horiz-adv-x="533" />
<glyph unicode="&#xa0;" horiz-adv-x="533" />
<glyph unicode="!" horiz-adv-x="532" d="M330 259q0 -9 -7 -14.5t-16 -5.5h-82q-9 0 -15.5 5.5t-6.5 14.5l-10 1354q0 9 6.5 15.5t15.5 6.5h104q8 0 14.5 -6.5t6.5 -15.5zM385 -183q0 -24 -16 -40t-39 -16h-127q-24 0 -40 16t-16 40v127q0 24 16 39.5t40 15.5h127q24 0 39.5 -16t15.5 -39v-127z" />
<glyph unicode="&#x22;" horiz-adv-x="456" d="M91 1511q0 9 6.5 16t16.5 7h47q9 0 15.5 -6.5t6.5 -16.5v-331q0 -9 -6.5 -16t-15.5 -7h-47q-9 0 -16 6.5t-7 16.5v331zM273 1511q0 9 6.5 16t16.5 7h47q9 0 15.5 -6.5t6.5 -16.5v-331q0 -9 -6.5 -16t-15.5 -7h-47q-9 0 -16 6.5t-7 16.5v331z" />
<glyph unicode="#" horiz-adv-x="1394" d="M734 868h-117q-15 0 -18 -14l-35 -156l-33 -163q0 -8 7 -9l125 -2l114 2q15 0 19 15l34 157l33 162q2 3 0 5.5t-4 2.5h-125zM257 952q2 8 7.5 13.5t15.5 5.5l210 -4q6 0 11.5 4t7.5 12l80 395q2 8 8 13.5t14 5.5h90q6 0 11.5 -5.5t3.5 -13.5l-90 -403q-2 -5 0.5 -6.5 t5.5 -1.5l123 -2l114 2q15 0 19 12l80 399q2 8 8 13.5t14 5.5h90q6 0 11.5 -5.5t3.5 -13.5l-90 -401q0 -10 8 -10l219 4q8 0 12 -5t2 -14l-14 -69q-2 -8 -7.5 -14.5t-15.5 -6.5l-213 4q-6 0 -12 -4t-8 -10l-33 -154l-33 -161q0 -8 9 -9l221 2q8 0 12 -6t2 -12l-16 -70 q-2 -8 -8.5 -13t-12.5 -5l-213 4q-15 0 -18 -14l-82 -398q-2 -6 -8 -11t-15 -5h-92q-6 0 -10 5t-2 11l92 404q0 5 -2 6.5t-4 1.5l-123 2l-117 -2q-6 0 -11 -3t-5 -9l-82 -400q-6 -16 -23 -16h-90q-6 0 -11 5t-3 11l92 402q0 10 -8 10l-219 -4q-9 0 -13 6t-2 12l15 70 q3 8 8 13t14 5l215 -2q13 0 17 13l35 157l32 158q0 10 -8 10l-219 -4q-17 0 -14 21z" />
<glyph unicode="$" horiz-adv-x="1044" d="M459 878q0 8 -8 8h-153q-8 0 -8 -8v-244q0 -8 8 -8h153q8 0 8 8v244zM459 1080q0 9 6.5 16t15.5 7h76q9 0 16 -6.5t7 -16.5v-60q0 -8 8 -8h92q9 0 15.5 -6t6.5 -15v-85q0 -8 -6.5 -14t-15.5 -6h-86q-8 0 -8 -8v-232q0 -9 6 -14.5t14 -5.5h271q9 0 14.5 -7t5.5 -16v-581 q0 -20 -20 -21h-289q-3 -2 -5.5 -3.5t-2.5 -6.5v-62q0 -8 -7 -14t-16 -6h-76q-9 0 -15.5 6t-6.5 14v62q0 8 -8 8h-283q-8 0 -14.5 6.5t-6.5 16.5v84q0 9 6.5 15t14.5 6h283q8 0 8 8v368q0 8 -8 8h-275q-20 0 -20 20v460q0 20 20 21h275q8 0 8 8v60zM586 578v-443q0 -8 8 -8 h161q8 0 8 8v363q0 8 -8 8h-67q-11 0 -20 6z" />
<glyph unicode="%" horiz-adv-x="1207" d="M368.529 316l12.4668 16.5v363h-212.927l-12.9658 -16.5v-363h213.426zM81.3027 691q0 9.5 6.48242 17l33.4102 44q5.9834 6 14.4609 6.5h308.17q4.48828 0 7.48047 -3.25q2.99121 -3.25 2.99121 -7.25v-427.5q0 -9.5 -5.9834 -17.5l-33.9092 -44q-5.9834 -6 -14.4609 -6 h-307.173q-4.4873 0 -7.97852 2.75q-3.49023 2.75 -3.49023 7.25v428zM339.108 668.5q0 1 1.24707 2.25q1.24609 1.25 2.74219 1.25h14.96q1.99414 0 2.49316 -2v-1.5l-159.57 -326.5q0 -1 -1.24707 -2q-1.24609 -1 -2.74219 -1h-15.458q-1.49609 0 -2.24414 1t0.249023 2z M666.529 63l12.4668 16.5v363h-212.927l-12.9658 -16.5v-363h213.426zM379.303 438q0 9.5 6.48242 17l33.4102 44q5.9834 6 14.4609 6.5h308.17q4.48828 0 7.48047 -3.25q2.99121 -3.25 2.99121 -7.25v-427.5q0 -9.5 -5.9834 -17.5l-33.9092 -44q-5.9834 -6 -14.4609 -6 h-307.173q-4.4873 0 -7.97852 2.75q-3.49023 2.75 -3.49023 7.25v428zM637.108 415.5q0 1 1.24707 2.25q1.24609 1.25 2.74219 1.25h14.96q1.99414 0 2.49316 -2v-1.5l-159.57 -326.5q0 -1 -1.24707 -2q-1.24609 -1 -2.74219 -1h-15.458q-1.49609 0 -2.24414 1t0.249023 2z M634.5 903.5q1.5 4.5 6 7.75t9 3.25h52.5q5.5 0 6.5 -3.5t-0.5 -7.5l-482 -988.5q-2.5 -4.5 -7.25 -7.75t-9.25 -3.25h-52.5q-4.5 0 -6 3.25t1 7.75z" />
<glyph unicode="&#x26;" horiz-adv-x="1357" d="M330 885q-15 0 -25 -10.5t-10 -24.5v-689q0 -14 9.5 -24.5t25.5 -10.5h647q15 0 25 10t10 25v89q0 11 -6 20l-471 600q-8 14 -29 15h-176zM1145 88q-17 -39 -53 -63.5t-82 -24.5h-715q-31 0 -58 11.5t-47 31t-31.5 47t-11.5 57.5v715q0 31 11.5 57.5t31.5 46.5t47 32 t58 12h131l-188 239q-9 14 -14 27t-5 31v77q0 31 11.5 57.5t31.5 46.5t47 32t58 12h497q31 0 57.5 -12t46.5 -32t32 -46.5t12 -57.5v-91q0 -9 -6 -15.5t-15 -6.5h-84q-8 0 -14 6.5t-6 15.5v87q0 15 -10.5 25t-24.5 10h-473q-14 0 -24.5 -9.5t-10.5 -25.5v-51q0 -19 12 -35 l660 -843v151q0 9 6 16t14 7h101q9 0 14.5 -7t5.5 -16v-321q0 -6 2.5 -12t5.5 -11l187 -238q6 -8 4.5 -14t-10.5 -6h-109q-9 0 -20 6t-19 14z" />
<glyph unicode="'" horiz-adv-x="330" d="M91 1510q0 9 6.5 16t16.5 7h47q9 0 15.5 -6.5t6.5 -16.5v-331q0 -9 -6.5 -16t-15.5 -7h-47q-9 0 -16 6.5t-7 16.5v331z" />
<glyph unicode="(" horiz-adv-x="627" d="M516 -273q20 0 21 -21v-70q0 -9 -6 -15.5t-15 -6.5h-104q-9 0 -16 6.5t-7 15.5v82q0 8 -8 9h-213q-8 0 -14.5 6.5t-6.5 15.5v1762q0 9 6.5 16t14.5 7h213q8 0 8 8v71q0 9 6.5 15.5t16.5 6.5h104q9 0 15 -6.5t6 -15.5v-59q0 -20 -21 -20h-65q-8 0 -9 -8v-108 q0 -9 -8 -14.5t-20 -5.5h-111q-8 0 -8 -8v-1518q0 -8 8 -8h117q9 0 15.5 -5.5t6.5 -15.5v-108q0 -8 9 -8h65z" />
<glyph unicode=")" horiz-adv-x="627" d="M112.031 -273q-19.998 0 -20.998 -21v-70q0 -9 5.99902 -15.5q6 -6.5 14.999 -6.5h103.994q8.99902 0 15.999 6.5q6.99902 6.5 6.99902 15.5v82q0 8 8 9h212.986q8 0 14.5 6.5q6.49902 6.5 6.49902 15.5v1762q0 9 -6.49902 16q-6.5 7 -14.5 7h-212.986q-8 0 -8 8v71 q0 9 -6.49902 15.5q-6.5 6.5 -16.499 6.5h-103.994q-8.99902 0 -14.999 -6.5q-5.99902 -6.5 -5.99902 -15.5v-59q0 -20 20.998 -20h64.9961q8 0 9 -8v-108q0 -9 7.99902 -14.5q8 -5.5 19.999 -5.5h110.993q7.99902 0 7.99902 -8v-1518q0 -8 -7.99902 -8h-116.993 q-8.99902 0 -15.499 -5.5q-6.49902 -5.5 -6.49902 -15.5v-108q0 -8 -9 -8h-64.9961z" />
<glyph unicode="*" horiz-adv-x="791" d="M527 1538q13 10 30 10q22 0 37 -17l17 -23q10 -13 11 -29q0 -23 -18 -37l-82 -66q-12 -9 -27 -9q-11 0 -21 4.5t-17 13.5l-18 22q-11 14 -11 30q0 22 17 36zM633 1318q15 -3 25 -16t10 -29q0 -7 -1 -11l-7 -28q-3 -16 -15.5 -26t-29.5 -10q-7 0 -11 1l-101 23 q-16 5 -26 17t-10 29q0 7 1 11l6 28q4 16 17 25.5t29 9.5q7 0 10 -1zM525 1100q5 -12 5 -21q0 -29 -26 -42l-26 -13q-8 -4 -19 -4q-13 0 -25 7t-18 20l-46 93q-4 9 -4 20q0 14 6.5 25.5t19.5 17.5l27 12q10 5 20 6q12 0 23.5 -7.5t17.5 -19.5zM289 1047q-6 -12 -18 -19.5 t-25 -7.5q-11 0 -20 4l-25 13q-13 6 -20 17.5t-7 24.5q0 12 4 21l45 94q13 27 42 27q10 0 21 -6l26 -13q12 -5 19.5 -16t7.5 -25q0 -9 -5 -21zM98 1199q-3 -1 -10 -1q-15 0 -28 10t-17 26l-7 28q-1 3 -1 10q0 16 9.5 29t27.5 17l101 23q3 1 10 1q16 0 29 -9.5t17 -25.5 l7 -29q1 -4 1 -11q0 -16 -10 -28t-25 -17zM99 1442q-17 14 -17 37q0 14 10 29l19 23q14 17 35 17q16 0 30 -10l82 -65q17 -14 17 -37q0 -17 -10 -29l-18 -22q-14 -18 -38 -18q-15 0 -28 9zM291 1593q0 19 13 32.5t33 13.5h30q19 0 32.5 -13t13.5 -33v-104q0 -20 -13.5 -33.5 t-32.5 -13.5h-30q-19 0 -32.5 13t-13.5 34v104z" />
<glyph unicode="+" horiz-adv-x="1046" d="M450 918q0 9 6.5 15.5t15.5 6.5h105q8 0 14 -6.5t6 -15.5v-349q0 -8 8 -8h328q9 0 15.5 -6.5t6.5 -15.5v-74q0 -9 -6.5 -16t-15.5 -7h-328q-8 0 -8 -8v-355q0 -9 -6 -16t-14 -7h-105q-9 0 -15.5 7t-6.5 16v355q0 8 -9 8h-327q-9 0 -16 7t-7 16v74q0 9 6.5 15.5t16.5 6.5 h327q8 0 9 8v349z" />
<glyph unicode="," horiz-adv-x="478" d="M331 0l-240 -303v303h240z" />
<glyph unicode="-" horiz-adv-x="737" d="M56 547q0 9 7 15.5t16 6.5h581q8 0 14.5 -6.5t6.5 -15.5v-82q0 -9 -6 -16t-15 -7h-581q-9 0 -16 7t-7 16v82z" />
<glyph unicode="." horiz-adv-x="478" d="M91 183q0 24 17 40t40 16h125q25 0 41.5 -16t16.5 -40v-128q0 -24 -16.5 -39.5t-41.5 -15.5h-125q-24 0 -40.5 16t-16.5 39v128z" />
<glyph unicode="/" horiz-adv-x="1120" d="M969 1613q3 9 12 15.5t18 6.5h105q11 0 13 -7t-1 -15l-964 -1977q-5 -9 -14.5 -15.5t-18.5 -6.5h-105q-9 0 -12 6.5t2 15.5z" />
<glyph unicode="0" horiz-adv-x="1042" d="M723 126l25 33v726h-427l-26 -33v-726h428zM147 876q0 19 13 34l67 88q12 12 29 13h618q9 0 15 -6.5t6 -14.5v-855q0 -19 -12 -35l-68 -88q-12 -12 -29 -12h-616q-9 0 -16 5.5t-7 14.5v856zM664 831q0 2 2.5 4.5t5.5 2.5h30q4 0 5 -4v-3l-320 -653q0 -2 -2.5 -4t-5.5 -2 h-31q-3 0 -4.5 2t0.5 4z" />
<glyph unicode="1" horiz-adv-x="499" d="M56 105q0 9 7 15t16 6h88q8 0 8 8v618q0 8 -8 8h-62q-8 0 -14 5.5t-6 14.5v84q0 9 6 15t14 6h62q8 0 8 8v97q0 9 6.5 15t16.5 6h104q20 0 21 -21v-856q0 -8 8 -8h90q9 0 15.5 -5.5t6.5 -15.5v-85q0 -9 -6.5 -14.5t-15.5 -5.5h-342q-9 0 -16 5.5t-7 14.5v85z" />
<glyph unicode="2" horiz-adv-x="841" d="M182 0q-16 0 -27 13l-57 72q-7 10 -7 21v260q0 31 12 57.5t32 46t47 31.5t57 12h323q14 0 24.5 9.5t10.5 25.5v302q0 15 -10 25t-25 10h-322q-9 0 -16 6.5t-7 15.5v81q0 9 6.5 16t16.5 7h357q31 0 57.5 -12t46.5 -32t31.5 -47t11.5 -57v-329q0 -31 -11.5 -58t-31.5 -47 t-46.5 -31.5t-57.5 -11.5h-324q-14 0 -24 -9.5t-10 -25.5v-217q0 -8 8 -8h481q9 0 16 -6t7 -15v-85q0 -9 -7 -14.5t-16 -5.5h-546v0z" />
<glyph unicode="3" horiz-adv-x="841" d="M476 549q-3 -4 -1 -8.5t7 -4.5h121q31 0 57.5 -12t46.5 -32t32 -46.5t12 -57.5v-241q0 -31 -12 -58t-32 -46.5t-46.5 -31t-57.5 -11.5h-420q-19 0 -36 7t-29.5 19.5t-19.5 29t-7 34.5v128q0 9 6.5 15t16.5 6h104q8 0 14.5 -6t6.5 -15v-84q0 -8 8 -8h321q15 0 25 10t10 25 v221q0 12 -8 20.5t-21 8.5h-152q-16 0 -28 13l-45 57q-20 27 -19.5 58t20.5 56l225 271q4 6 0 11l-4 5q-2 3 -6 3h-331q-9 0 -15 6.5t-6 14.5v83q0 9 6 15.5t15 6.5h379q17 0 28 -14q3 -5 12 -15.5t19 -23.5q11 -14 24 -30q20 -26 20 -54.5t-27 -59.5z" />
<glyph unicode="4" horiz-adv-x="899" d="M183 408q-16 0 -27 13l-58 74q-7 8 -7 21v347q0 9 6.5 15t16.5 6h104q20 0 21 -21v-322q0 -8 8 -9h336q9 0 14.5 7t5.5 16v434q0 9 6.5 15t16.5 6h104q20 0 21 -21v-448q0 -8 8 -9h61q9 0 16 -5.5t7 -14.5v-78q0 -9 -7 -15.5t-16 -6.5h-61q-8 0 -8 -9v-384q0 -20 -21 -20 h-104q-9 0 -16 5.5t-7 14.5v460l-82 -65q-9 -6 -20 -6h-318v0z" />
<glyph unicode="5" horiz-adv-x="841" d="M218 500q-16 0 -28 13l-57 73q-7 10 -7 21v381q0 9 6.5 16t15.5 7h456q8 0 14.5 -7t6.5 -16v-81q0 -9 -6.5 -15.5t-14.5 -6.5h-322q-8 0 -9 -8v-244q0 -8 9 -8h321q31 0 57.5 -12t46.5 -32t32 -46.5t12 -57.5v-330q0 -31 -12 -58t-32 -46.5t-46.5 -31t-57.5 -11.5h-420 q-19 0 -36 7t-29.5 19.5t-19.5 29t-7 34.5v128q0 9 6.5 15t16.5 6h104q20 0 21 -21v-84q0 -8 8 -8h321q14 0 24.5 10t10.5 25v304q0 15 -10 25t-25 10h-350v0z" />
<glyph unicode="6" d="M147 876q0 19 13 34l67 88q12 12 29 13h261q6 0 11.5 -5.5t5.5 -13.5v-89q0 -8 -5.5 -13t-11.5 -5h-214q-8 0 -8 -8v-343l82 63q8 8 20 8h262q31 0 57.5 -11.5t46.5 -31.5t32 -47.5t12 -56.5v-311q0 -31 -12 -58t-32 -46.5t-46.5 -31t-57.5 -11.5h-421q-18 0 -35 7 t-29 19.5t-19.5 29.5t-7.5 36v784zM295 134q0 -8 8 -8h322q14 0 24 9.5t10 25.5v281q0 15 -10 25t-24 10h-310q-8 0 -14 -5.5t-6 -14.5v-323z" />
<glyph unicode="7" horiz-adv-x="660" d="M535 513q0 -8 8 -8h62q9 0 15 -6.5t6 -16.5v-75q0 -20 -21 -21h-62q-8 0 -8 -8v-358q0 -9 -7 -14.5t-16 -5.5h-104q-20 0 -21 20v357q0 8 -8 8h-119q-20 0 -20 21v81q0 20 20 21h23q13 0 22 -6l82 -66v441q0 8 -8 8h-357q-20 0 -21 20v85q0 20 21 21h419q17 0 28 -14 l57 -73q8 -10 9 -22v-389z" />
<glyph unicode="8" horiz-adv-x="1044" d="M330 505q-15 0 -25 -10.5t-10 -24.5v-309q0 -14 9.5 -24.5t25.5 -10.5h385q15 0 25 10t10 25v309q0 14 -10 24.5t-25 10.5h-385zM354 639q0 -6 3.5 -10t9.5 -4h311q5 0 8.5 4t3.5 10v233q0 5 -3.5 9t-8.5 4h-311q-5 0 -9 -3.5t-4 -9.5v-233zM836 598q28 -20 44.5 -51 t16.5 -70v-330q0 -31 -12 -58t-31.5 -46.5t-46.5 -31t-57 -11.5h-455q-31 0 -58 11.5t-47 31t-31.5 47t-11.5 57.5v330q0 39 17 70t45 51q18 12 18 33v288q0 39 27 65.5t65 26.5h406q39 0 65.5 -27t26.5 -65v-288q1 -21 19 -33z" />
<glyph unicode="9" d="M716 135q0 -19 -13 -35l-67 -88q-12 -12 -29 -12h-261q-6 0 -11 5t-5 13v90q0 8 5 13t11 5h214q8 0 8 8v343l-82 -63q-8 -8 -20 -8h-262q-31 0 -58 11.5t-47 31.5t-31.5 47t-11.5 57v310q0 31 11.5 57.5t31.5 46.5t47 32t58 12h422q18 0 34.5 -7.5t28.5 -19.5t19.5 -29 t7.5 -36v-784zM568 877q0 8 -8 8h-321q-14 0 -24.5 -10t-10.5 -25v-282q0 -15 10 -24.5t25 -9.5h309q8 0 14 5.5t6 14.5v323z" />
<glyph unicode=":" horiz-adv-x="478" d="M91 183q0 24 17 40t40 16h125q25 0 41.5 -16t16.5 -40v-128q0 -24 -16.5 -39.5t-41.5 -15.5h-125q-24 0 -40.5 16t-16.5 39v128zM91 808q0 24 17 40t40 16h125q25 0 41.5 -16t16.5 -40v-128q0 -24 -16.5 -39.5t-41.5 -15.5h-125q-24 0 -40.5 16t-16.5 39v128z" />
<glyph unicode=";" horiz-adv-x="478" d="M91 808q0 24 17 40t40 16h125q25 0 41.5 -16t16.5 -40v-128q0 -24 -16.5 -39.5t-41.5 -15.5h-125q-24 0 -40.5 16t-16.5 39v128zM331 1l-240 -303v303h240z" />
<glyph unicode="&#x3c;" horiz-adv-x="555" d="M205 494l292 -368h-350v737h352z" />
<glyph unicode="=" horiz-adv-x="1046" d="M91 367q0 9 6.5 14.5t16.5 5.5h819q9 0 15.5 -5.5t6.5 -14.5v-84q0 -8 -6.5 -14.5t-15.5 -6.5h-819q-9 0 -16 6t-7 15v84zM91 729q0 9 6.5 15t16.5 6h819q9 0 15.5 -6t6.5 -15v-84q0 -8 -6.5 -14t-15.5 -6h-819q-9 0 -16 6t-7 14v84z" />
<glyph unicode="&#x3e;" horiz-adv-x="555" d="M56 863h352v-737h-350l292 368z" />
<glyph unicode="?" horiz-adv-x="1068" d="M204 1033q0 -9 -6.5 -15.5t-14.5 -6.5h-104q-9 0 -16 6.5t-7 15.5v124q0 49 19 92.5t51.5 76.5t76 52t93.5 19h385q49 0 92.5 -19t76.5 -52t52 -76.5t19 -92.5v-531q0 -50 -19 -94t-52 -76t-76.5 -51t-92.5 -19h-139q-8 0 -8 -8v-355q0 -9 -6 -16t-15 -7h-104 q-9 0 -16 6.5t-7 16.5v459q0 9 6.5 16t16.5 7h272q19 0 36 7t29.5 19.5t19.5 29t7 34.5v586q0 18 -7 34.5t-19.5 28.5t-29.5 19.5t-36 7.5h-385q-19 0 -36 -7.5t-29.5 -19.5t-19.5 -28.5t-7 -34.5v-148zM580 -331q0 -24 -16 -39.5t-40 -15.5h-127q-24 0 -39.5 16t-15.5 39 v129q0 24 16 40t39 16h127q24 0 40 -16t16 -40v-129z" />
<glyph unicode="@" horiz-adv-x="1691" d="M681 247q0 -8 8 -8h300q9 0 16 6.5t7 15.5v343q0 9 -7 15t-16 6h-300q-8 0 -8 -9v-369zM534 735q0 9 5.5 16t14.5 7h368q17 0 28 -15l62 -77v336q0 8 -8 9h-211q-9 0 -15 6t-6 14v84q0 20 21 21h344q9 0 15.5 -6t6.5 -15v-868q0 -8 8 -8h222q8 0 8 8v1001q0 9 -6.5 16 t-14.5 7h-1059q-9 0 -15.5 -7t-6.5 -16v-1339q0 -9 6.5 -16t15.5 -7h672q9 0 16 -6t7 -14v-84q0 -9 -7 -15t-16 -6h-694q-31 0 -58 11.5t-47 31.5t-31.5 47t-11.5 58v1340q0 31 11.5 57.5t31.5 46.5t47 32t58 12h1102q31 0 57.5 -12t46.5 -32t31.5 -46.5t11.5 -57.5v-1068 q0 -24 -16 -39.5t-39 -15.5h-453q-9 0 -14.5 6t-5.5 14v70l-62 -78q-12 -12 -28 -12h-372q-9 0 -14.5 6t-5.5 14v589z" />
<glyph unicode="A" horiz-adv-x="1157" d="M147 1262q0 19 13 34l67 88q12 12 29 13h719q15 0 25 -10.5t10 -24.5v-1339q0 -9 -6 -16t-15 -7h-104q-9 0 -16 6.5t-7 16.5v806l-80 -63l-11 -5.5t-11 -2.5h-465v-735q0 -9 -6.5 -16t-16.5 -7h-104q-8 0 -14.5 6.5t-6.5 16.5v1239zM307 1270q-5 0 -8.5 -3.5t-3.5 -9.5 v-352q0 -8 6 -14t14 -6h527q9 0 14.5 6t5.5 14v352q0 5 -3.5 9t-8.5 4h-543z" />
<glyph unicode="B" horiz-adv-x="1136" d="M1011 135q0 -19 -13 -35l-67 -88q-12 -12 -29 -12h-734q-8 0 -14.5 6t-6.5 14v1242q0 19 13 34l67 88q12 12 29 13h572q15 0 25 -10t10 -25v-373q0 -13 -6 -22l-65 -82h127q16 0 27 -14l58 -73q7 -8 7 -22v-641zM295 907q0 -9 6 -15.5t14 -6.5h380q9 0 15 6.5t6 15.5v350 q0 14 -13 15h-400q-8 0 -8 -8v-357zM855 126q8 0 8 8v610q0 14 -12 15h-454q-12 0 -20 8l-82 63v-696q0 -8 8 -8h552z" />
<glyph unicode="C" d="M147 1262q0 19 13 34l67 88q12 12 29 13h494q9 0 15.5 -6t6.5 -15v-85q0 -9 -6.5 -14.5t-15.5 -5.5h-447q-8 0 -8 -8v-1129q0 -8 8 -8h481q9 0 16 -5.5t7 -15.5v-85q0 -9 -6.5 -14.5t-16.5 -5.5h-616q-20 0 -21 20v1242zM147 1262q0 19 13 34l67 88q12 12 29 13h494 q9 0 15.5 -6t6.5 -15v-85q0 -9 -6.5 -14.5t-15.5 -5.5h-447q-8 0 -8 -8v-1129q0 -8 8 -8h481q9 0 16 -5.5t7 -15.5v-85q0 -9 -6.5 -14.5t-16.5 -5.5h-616q-20 0 -21 20v1242z" />
<glyph unicode="D" horiz-adv-x="1067" d="M147 0v1374q0 9 6 16t15 7h100q8 0 14.5 -7t6.5 -16v-59l82 74q8 8 22 8h418q16 0 28 -14l68 -87q12 -17 13 -34v-1127q0 -19 -13 -35l-68 -87q-10 -13 -28 -13h-664zM295 126h455q9 0 15.5 6.5t6.5 15.5v1102q0 9 -6.5 15t-15.5 6h-414q-15 0 -23.5 -6.5t-12.5 -14.5 q-4 -9 -5 -20v-1104z" />
<glyph unicode="E" horiz-adv-x="841" d="M147 1262q0 19 13 34l67 88q12 12 29 13h494q9 0 15.5 -6t6.5 -15v-85q0 -9 -6.5 -14.5t-15.5 -5.5h-447q-8 0 -8 -8v-450l82 64q8 8 20 8h115q9 0 14.5 -7t5.5 -16v-82q0 -9 -5.5 -15.5t-14.5 -6.5h-197q-20 0 -20 -21v-603q0 -8 8 -8h481q9 0 16 -5.5t7 -15.5v-85 q0 -9 -6.5 -14.5t-16.5 -5.5h-616q-20 0 -21 20v1242v0z" />
<glyph unicode="F" horiz-adv-x="772" d="M751 1397q9 0 15.5 -6t6.5 -15v-85q0 -9 -6.5 -14.5t-15.5 -5.5h-447q-8 0 -8 -8v-450l82 64q8 8 20 8h115q9 0 15 -7t6 -16v-82q0 -9 -6 -15.5t-15 -6.5h-197q-20 0 -20 -21v-717q0 -9 -6.5 -14.5t-16.5 -5.5h-104q-20 0 -21 20v1242q0 19 13 34l67 88q12 12 29 13h494 v0z" />
<glyph unicode="G" horiz-adv-x="1100" d="M1011 135q0 -19 -13 -35l-67 -88q-12 -12 -29 -12h-734q-20 0 -21 20v1242q0 19 13 34l67 88q12 12 29 13h494q9 0 15.5 -6t6.5 -15v-85q0 -9 -6.5 -14.5t-15.5 -5.5h-447q-8 0 -8 -8v-1129q0 -8 8 -8h551q8 0 8 8v695l-81 -63q-10 -8 -20 -8h-116q-9 0 -14.5 6.5 t-5.5 15.5v82q0 9 5.5 16t14.5 7h331q15 0 25 -10.5t10 -24.5v-715z" />
<glyph unicode="H" horiz-adv-x="1157" d="M862 1376q0 9 7 15t16 6h104q20 0 21 -21v-1356q0 -8 -6 -14t-15 -6h-104q-9 0 -16 6t-7 14v811l-80 -63q-11 -8 -22 -8h-363q-12 0 -20 8l-82 63v-811q0 -8 -6.5 -14t-16.5 -6h-104q-8 0 -14.5 6t-6.5 14v1356q0 9 6.5 15t14.5 6h104q9 0 16 -6t7 -15v-469q0 -9 6 -15.5 t14 -6.5h527q9 0 14.5 6.5t5.5 15.5v469z" />
<glyph unicode="I" horiz-adv-x="490" d="M126 1376q0 8 6.5 15t14.5 7h196q9 0 15.5 -7t6.5 -15v-83q0 -9 -6.5 -15t-15.5 -6h-24v-1145h24q9 0 15.5 -6.5t6.5 -15.5v-82q0 -9 -6.5 -15.5t-15.5 -6.5h-196q-8 0 -14.5 6t-6.5 16v82q0 8 6.5 15t14.5 7h25v1145h-25q-8 0 -14.5 6t-6.5 15v83z" />
<glyph unicode="J" horiz-adv-x="715" d="M126 0q-17 0 -27 13l-56 72q-8 10 -8 21v111q0 9 6.5 15.5t14.5 6.5h48q8 0 9 -9v-96q0 -8 8 -8h292q8 0 8 8v1241q0 9 6.5 15.5t14.5 6.5h105q9 0 15 -6.5t6 -15.5v-1353q0 -8 -6 -15t-15 -7h-421z" />
<glyph unicode="K" d="M681 135q0 -8 8 -8h61q9 0 15.5 -5.5t6.5 -15.5v-84q0 -8 -6.5 -14.5t-15.5 -6.5h-108q-16 0 -29 12l-67 88q-12 15 -12 35v380q0 9 -11 12l-86 21q-9 2 -13.5 9t-2.5 15l29 124l-82 -63q-8 -8 -21 -8h-44q-8 0 -8 -9v-595q0 -9 -6.5 -15t-16.5 -6h-104q-20 0 -21 21 v1355q0 20 21 21h104q9 0 16 -6t7 -15v-616q0 -8 8 -8h132q12 0 21.5 7t11.5 19l139 609q2 8 9.5 13t15.5 3l98 -23q19 -6 16 -26l-189 -804q-2 -6 2 -11t12 -5h18q15 0 26 -13l58 -73q8 -11 8 -22v-292z" />
<glyph unicode="L" horiz-adv-x="714" d="M147 1376q0 20 21 21h104q9 0 16 -6t7 -15v-1242q0 -8 8 -8h356q20 0 21 -21v-85q0 -20 -21 -20h-403q-16 0 -29 12l-67 88q-12 15 -13 35v1241v0z" />
<glyph unicode="M" horiz-adv-x="1305" d="M714 1010q8 0 8 8v116q0 9 6 15.5t14 6.5h113q8 0 8 8v86q0 9 7 15t16 6h121q8 0 8 8v97q0 20 20 21h103q20 0 20 -21v-1356q0 -20 -20 -20h-105q-9 0 -15.5 5.5t-6.5 14.5v1128q0 8 -9 8h-124q-8 0 -9 -8v-116q0 -9 -6.5 -15.5t-15.5 -6.5h-113q-8 0 -8 -9v-356 q0 -20 -20 -20h-106q-9 0 -15.5 5.5t-6.5 14.5v356q0 8 -9 9h-110q-9 0 -16 6.5t-7 15.5v116q0 8 -8 8h-125q-8 0 -8 -8v-1128q0 -9 -6.5 -14.5t-16.5 -5.5h-104q-20 0 -21 20v1356q0 20 21 21h102q20 0 21 -21v-97q0 -8 8 -8h121q9 0 15.5 -5.5t6.5 -15.5v-86q0 -8 9 -8 h112q8 0 14.5 -6.5t6.5 -15.5v-116q0 -8 8 -8h122z" />
<glyph unicode="N" horiz-adv-x="1115" d="M820 1376q0 9 7 15t16 6h104q20 0 21 -21v-1356q0 -20 -21 -20h-104q-9 0 -16 5.5t-7 14.5v720q0 8 -8 9h-96q-9 0 -16 6.5t-7 15.5v106q0 8 -8 8h-111q-9 0 -14.5 6.5t-5.5 15.5v106q0 8 -8 8h-111q-9 0 -15.5 6.5t-6.5 15.5v106q0 8 -9 8h-101q-8 0 -8 -8v-1129 q0 -9 -6.5 -14.5t-16.5 -5.5h-104q-20 0 -21 20v1356q0 20 21 21h102q20 0 21 -21v-97q0 -8 8 -8h98q9 0 16 -6.5t7 -14.5v-85q0 -8 8 -8h112q9 0 14.5 -6.5t5.5 -15.5v-106q0 -8 8 -8h111q9 0 15.5 -6t6.5 -15v-107q0 -8 9 -8h102q8 0 8 8v483z" />
<glyph unicode="O" horiz-adv-x="1158" d="M182 0q-15 0 -25 10t-10 25v1227q0 19 13 34l67 88q12 12 29 13h720q15 0 25 -10.5t10 -24.5v-1227q0 -19 -13 -35l-67 -88q-12 -12 -29 -12h-720zM863 1258q0 12 -12 13h-544q-12 0 -12 -13v-1120q0 -12 12 -12h544q12 0 12 12v1120z" />
<glyph unicode="P" horiz-adv-x="989" d="M863 1397q14 0 24.5 -10.5t10.5 -24.5v-603q0 -19 -12 -35l-68 -88q-12 -12 -28 -12h-407q-16 0 -27 14l-61 78v-696q0 -8 -6.5 -14t-16.5 -6h-104q-8 0 -14.5 6t-6.5 14v1242q0 19 13 34l67 88q12 12 29 13h607zM295 771q0 -8 6 -14t14 -6h427q8 0 9 8v499q0 5 -4.5 9 t-10.5 4h-433q-8 0 -8 -8v-492z" />
<glyph unicode="Q" horiz-adv-x="1158" d="M147 1262q0 19 13 34l67 88q12 12 29 13h720q14 0 24.5 -10.5t10.5 -24.5v-1342q0 -20 -21 -20h-141l65 -82q6 -9 7 -22v-114q0 -9 -7 -15t-16 -6h-105q-20 0 -21 21v195q0 9 -5.5 16t-14.5 7h-584q-20 0 -21 20v1242zM295 134q0 -8 8 -8h552q8 0 8 8v1124q0 5 -4 9 t-10 4h-542q-5 0 -8.5 -3.5t-3.5 -9.5v-1124z" />
<glyph unicode="R" horiz-adv-x="1002" d="M515 616q-3 8 -12 9h-120q-8 0 -15 3t-12 11l-61 78v-697q0 -9 -6.5 -14.5t-16.5 -5.5h-104q-20 0 -21 20v1242q0 19 13 34l67 88q12 12 29 13h606q14 0 24.5 -10.5t10.5 -24.5v-602q0 -19 -12 -35l-68 -88q-12 -12 -29 -12h-166l71 -93l216 -500q3 -7 0.5 -14.5 t-9.5 -10.5l-14 -6q-14 -6 -27 1l-85 44q-15 7 -21 24zM295 772q0 -20 20 -20h420q6 0 10.5 3.5t4.5 8.5v494q0 5 -4.5 9t-10.5 4h-432q-8 0 -8 -8v-491z" />
<glyph unicode="S" horiz-adv-x="953" d="M79 0q-9 0 -16 5.5t-7 14.5v85q0 9 7 15t16 6h593q8 0 8 8v612q0 5 -4 9t-10 4h-540q-15 0 -25 10t-10 25v468q0 19 12 34l68 88q12 12 29 13h459q8 0 14.5 -6t6.5 -15v-85q0 -8 -6 -14t-15 -6h-412q-8 0 -8 -8v-365q0 -6 3.5 -10t8.5 -4h542q14 0 24 -10t10 -25v-714 q0 -19 -12 -35l-67 -88q-12 -12 -29 -12h-640z" />
<glyph unicode="T" horiz-adv-x="787" d="M467 20q0 -20 -21 -20h-104q-9 0 -16 5.5t-7 14.5v1243q0 8 -8 8h-280q-9 0 -16 5.5t-7 14.5v85q0 9 7 15t16 6h726q9 0 15.5 -6t6.5 -15v-85q0 -9 -6.5 -14.5t-15.5 -5.5h-282q-8 0 -8 -8v-1243z" />
<glyph unicode="U" horiz-adv-x="1068" d="M168 0q-20 0 -21 20v1356q0 20 21 21h104q9 0 16 -6t7 -15v-1242q0 -8 8 -8h462q8 0 8 8v1242q0 20 21 21h104q9 0 16 -6t7 -15v-1241q0 -19 -13 -35l-67 -88q-12 -12 -29 -12h-644z" />
<glyph unicode="V" horiz-adv-x="954" d="M659 1376q0 8 6 14.5t15 6.5h104q9 0 16 -6.5t7 -14.5v-1117q0 -8 -6.5 -14t-16.5 -6h-98q-8 0 -8 -9v-84q0 -20 -21 -20h-98q-8 0 -8 -8v-98q0 -9 -6.5 -14.5t-16.5 -5.5h-104q-20 0 -21 20v98q0 8 -8 8h-98q-9 0 -16 5.5t-7 14.5v84q0 8 -8 9h-98q-9 0 -15 6.5t-6 15.5 v1113q0 9 6 16t15 7h104q9 0 16 -7t7 -16v-1127q0 -8 8 -8h98q9 0 15 -6.5t6 -14.5v-84q0 -8 8 -8h92q8 0 8 8v84q0 8 7 14.5t16 6.5h98q8 0 8 8v1129z" />
<glyph unicode="W" horiz-adv-x="1243" d="M147 1376q0 20 21 21h104q9 0 16 -6t7 -15v-1242q0 -8 8 -8h103q8 0 8 8v82q0 9 5.5 16t14.5 7h109q8 0 8 8v615q0 9 6.5 16t15.5 7h105q9 0 14.5 -7t5.5 -16v-615q0 -8 9 -8h110q8 0 14.5 -7t6.5 -16v-82q0 -8 8 -8h94q8 0 8 8v1242q0 9 7 15t16 6h104q20 0 21 -21 v-1356q0 -20 -21 -20h-233q-5 0 -9 5.5t-4 14.5v98q0 8 -8 8h-108q-9 0 -16 5.5t-7 14.5v84q0 8 -8 9h-113q-8 0 -8 -9v-84q0 -9 -6.5 -14.5t-15.5 -5.5h-109q-8 0 -8 -8v-98q0 -9 -3.5 -14.5t-8.5 -5.5h-242q-20 0 -21 20v1356z" />
<glyph unicode="X" horiz-adv-x="894" d="M347 741l-289 633q-3 9 1 16t14 7h106q9 0 17.5 -7t11.5 -16l174 -364l63 -148l238 512q5 9 13.5 16t17.5 7h108q9 0 13.5 -7t1.5 -16l-289 -633l323 -721q3 -8 -1 -14t-13 -6h-106q-8 0 -17 6t-12 14l-219 484l-51 119l-275 -603q-3 -8 -12 -14t-19 -6h-108 q-9 0 -13.5 6t-0.5 14z" />
<glyph unicode="Y" horiz-adv-x="862" d="M91 1374q0 9 6.5 16t16.5 7h104q8 0 14.5 -7t6.5 -16v-475q0 -14 14 -14h359q5 0 9 4t4 10v475q0 9 6.5 16t15.5 7h104q8 0 14 -7t6 -16v-480q0 -19 -12 -35l-68 -88q-12 -12 -28 -12h-150q-8 0 -8 -8v-731q0 -8 -6 -14t-15 -6h-104q-9 0 -16 6t-7 14v731q0 8 -8 8h-149 q-16 0 -29 12l-68 88q-12 15 -12 35v480v0z" />
<glyph unicode="Z" horiz-adv-x="729" d="M670 126q11 0 17.5 -6.5t6.5 -16.5v-80q0 -9 -6.5 -16t-17.5 -7h-613q-9 0 -15.5 6.5t-6.5 16.5v88l463 1069l71 92h-477q-9 0 -15.5 6t-6.5 14v84q0 9 6.5 15t15.5 6h574q20 0 20 -21v-82q0 -8 -2 -10l-461 -1066l-71 -92h518z" />
<glyph unicode="[" horiz-adv-x="568" d="M168 -386q-9 0 -15 6.5t-6 15.5v1977q0 9 6 15.5t15 6.5h287q9 0 15.5 -6.5t6.5 -15.5v-57q0 -9 -6.5 -15.5t-15.5 -6.5h-152q-8 0 -8 -8v-1801q0 -8 8 -9h152q9 0 15.5 -6.5t6.5 -15.5v-58q0 -9 -6.5 -15.5t-15.5 -6.5h-287z" />
<glyph unicode="\" horiz-adv-x="1234" d="M266.06 1613q-3 9 -12 15.5q-8.99902 6.5 -17.999 6.5h-104.993q-10.999 0 -12.999 -7t1 -15l963.941 -1977q4.99902 -9 14.499 -15.5q9.49902 -6.5 18.498 -6.5h104.994q8.99902 0 11.999 6.5t-2 15.5z" />
<glyph unicode="]" horiz-adv-x="568" d="M400.01 -386q9 0 15 6.5q5.99902 6.5 5.99902 15.5v1977q0 9 -5.99902 15.5q-6 6.5 -15 6.5h-286.982q-8.99902 0 -15.499 -6.5q-6.49902 -6.5 -6.49902 -15.5v-57q0 -9 6.49902 -15.5q6.5 -6.5 15.499 -6.5h151.991q7.99902 0 7.99902 -8v-1801q0 -8 -7.99902 -9 h-151.991q-8.99902 0 -15.499 -6.5q-6.49902 -6.5 -6.49902 -15.5v-58q0 -9 6.49902 -15.5q6.5 -6.5 15.499 -6.5h286.982z" />
<glyph unicode="^" horiz-adv-x="677" d="M338 1353l-255 -202v242h510v-242z" />
<glyph unicode="_" horiz-adv-x="624" d="M0 -135q0 20 20 20h582q9 0 16 -5.5t7 -14.5v-84q0 -8 -7 -14.5t-16 -6.5h-582q-9 0 -14.5 6.5t-5.5 14.5v84z" />
<glyph unicode="`" horiz-adv-x="526" d="M147 1339l232 -182h-232v182z" />
<glyph unicode="a" d="M593 0q-8 0 -14.5 6t-6.5 14v76l-65 -84q-11 -12 -27 -12h-366q-9 0 -16 6t-7 14v582q0 9 6.5 16t16.5 7h366q15 0 27 -15l61 -78v345q0 8 -8 8h-208q-9 0 -15.5 6t-6.5 14v85q0 9 6.5 15t15.5 6h343q8 0 14.5 -6t6.5 -15v-970q0 -8 -6.5 -14t-14.5 -6h-102zM239 134 q0 -8 8 -8h301q8 0 14 6.5t6 15.5v336q0 9 -6 15t-14 6h-301q-8 0 -8 -8v-363z" />
<glyph unicode="b" horiz-adv-x="919" d="M295 918l61 79q9 12 27 13h367q9 0 15.5 -6t6.5 -15v-969q0 -8 -6.5 -14t-15.5 -6h-371q-16 0 -29 12l-61 80v-72q0 -8 -6.5 -14t-14.5 -6h-100q-9 0 -15 6t-6 14v1479q0 19 13 35l67 88q9 12 27 12h18q9 0 16 -5.5t7 -14.5v-696zM295 148q0 -9 5.5 -15.5t14.5 -6.5h301 q8 0 9 8v743q0 8 -9 8h-301q-9 0 -14.5 -7t-5.5 -16v-714z" />
<glyph unicode="c" horiz-adv-x="777" d="M147 876q0 19 13 34l67 88q12 12 29 13h400q20 0 21 -21v-85q0 -20 -21 -20h-353q-8 0 -8 -8v-743q0 -8 8 -8h363q8 0 14 -5.5t6 -15.5v-85q0 -9 -6 -14.5t-14 -5.5h-498q-20 0 -21 20v856z" />
<glyph unicode="d" horiz-adv-x="919" d="M625 918v582q0 19 12 35l68 88q9 12 26 12h19q9 0 15.5 -5.5t6.5 -14.5v-1595q0 -8 -6.5 -14t-15.5 -6h-99q-9 0 -15.5 6t-6.5 14v72l-62 -80q-12 -12 -28 -12h-371q-9 0 -15 6t-6 14v969q0 20 21 21h367q17 0 26 -13zM625 862q0 9 -7 16t-16 7h-299q-8 0 -8 -8v-743 q0 -8 8 -8h299q9 0 16 6.5t7 15.5v714z" />
<glyph unicode="e" d="M147 823v53q0 19 13 34l67 88q12 12 29 13h494q9 0 15.5 -6t6.5 -15v-581q0 -9 -6.5 -16t-15.5 -7h-367q-8 0 -15 3t-12 11l-61 78v-344q0 -8 8 -8h300q20 0 21 -21v-85q0 -20 -21 -20h-435q-20 0 -21 20v803zM295 525q0 -20 20 -20h301q8 0 9 8v364q0 8 -9 8h-313 q-8 0 -8 -8v-352z" />
<glyph unicode="f" horiz-adv-x="534" d="M356 996q10 14 27 15h74q9 0 14.5 -7t5.5 -16v-81q0 -9 -5.5 -15.5t-14.5 -6.5h-142q-8 0 -14 -6.5t-6 -14.5v-844q0 -8 -6.5 -14t-16.5 -6h-104q-8 0 -14.5 6t-6.5 14v1480q0 19 13 35l67 88q12 12 29 12h261q6 0 11.5 -5t5.5 -13v-89q0 -8 -5.5 -13.5t-11.5 -5.5h-214 q-8 0 -8 -8v-582z" />
<glyph unicode="g" horiz-adv-x="841" d="M146 0q-20 0 -20 20v856q0 19 12 34l68 88q12 12 28 13h283q16 0 29 -13l61 -79v71q0 8 7 14.5t16 6.5h98q9 0 16 -6.5t7 -14.5v-1354q0 -9 -6.5 -15.5t-14.5 -6.5h-346q-8 0 -13 5t-5 13v17q0 12 10 22l74 60q8 5 14.5 7.5t15.5 2.5h119q8 0 8 8v343l-63 -80 q-11 -12 -27 -12h-371zM603 862q0 9 -6.5 16t-15.5 7h-299q-8 0 -9 -8v-743q0 -8 9 -8h299q9 0 15.5 6.5t6.5 15.5v714z" />
<glyph unicode="h" d="M356 997q9 12 27 13h369q8 0 14 -6.5t6 -14.5v-966q0 -9 -6 -16t-14 -7h-105q-9 0 -15.5 6.5t-6.5 16.5v854q0 8 -9 8h-301q-8 0 -14 -6.5t-6 -14.5v-844q0 -8 -6.5 -14t-16.5 -6h-104q-8 0 -14.5 6t-6.5 14v1479q0 19 13 35l67 88q12 12 29 12h16q9 0 16 -5.5t7 -14.5 v-694z" />
<glyph unicode="i" horiz-adv-x="442" d="M147 884q-13 1 -26 10l-74 59q-12 9 -12 23v16q0 8 5 13.5t13 5.5h219q9 0 16 -6t7 -15v-970q0 -9 -6.5 -14.5t-16.5 -5.5h-104q-20 0 -21 20v864zM147 1282q0 9 6 16t15 7h104q9 0 16 -7t7 -16v-104q0 -9 -6.5 -15t-16.5 -6h-104q-20 0 -21 21v104z" />
<glyph unicode="j" horiz-adv-x="443" d="M148 1282q0 9 6.5 16t14.5 7h104q9 0 16 -7t7 -16v-104q0 -8 -6.5 -14.5t-16.5 -6.5h-104q-8 0 -14.5 6t-6.5 15v104zM140 -259q8 0 8 8v1241q0 8 6.5 14.5t14.5 6.5h104q9 0 16 -6.5t7 -14.5v-1354q0 -9 -6.5 -15.5t-16.5 -6.5h-346q-8 0 -13 5t-5 13v17q0 13 12 22 l74 60q8 5 14.5 7.5t16.5 2.5h114z" />
<glyph unicode="k" d="M772 22q0 -8 -6.5 -14.5t-15.5 -6.5h-105q-9 0 -14.5 6t-5.5 15v475q0 8 -9 8h-233q-16 0 -27 14l-61 78v-575q0 -8 -6.5 -14.5t-16.5 -6.5h-104q-9 0 -15 6t-6 15v1479q0 19 13 35l67 88q9 12 27 12h18q9 0 16 -5.5t7 -14.5v-970q0 -8 5.5 -14t14.5 -6h43q8 0 9 8v82 q0 9 5.5 15.5t14.5 6.5h100q8 0 9 8v98q0 8 5.5 14t14.5 6h100q8 0 9 8v118q0 20 20 21h105q9 0 15.5 -6t6.5 -15v-103q0 -9 -6.5 -16t-15.5 -7h-99q-8 0 -8 -8v-107q0 -9 -6.5 -15t-15.5 -6h-99q-8 0 -8 -8v-86q0 -8 8 -8h142q16 0 28 -13l68 -88q12 -15 12 -35v-468z" />
<glyph unicode="l" horiz-adv-x="553" d="M295 134q0 -8 8 -8h209q20 0 20 -21v-85q0 -8 -5.5 -14t-14.5 -6h-344q-8 0 -14.5 6t-6.5 14v1480q0 19 13 35l67 88q9 12 27 12h18q9 0 16 -5.5t7 -14.5v-1481v0z" />
<glyph unicode="m" horiz-adv-x="1157" d="M989 1011q20 0 21 -21v-970q0 -20 -21 -20h-104q-9 0 -16 5.5t-7 14.5v857q0 8 -8 8h-190q-9 0 -16 -7t-7 -16v-842q0 -8 -5.5 -14t-14.5 -6h-84q-9 0 -16 6t-7 14v857q0 8 -8 8h-191q-9 0 -14.5 -7t-5.5 -16v-842q0 -9 -6.5 -14.5t-16.5 -5.5h-104q-20 0 -21 20v970 q0 20 21 21h98q9 0 16 -6t7 -15v-69l61 77q9 12 27 13h239q20 0 21 -21v-69l61 77q12 12 29 13h262z" />
<glyph unicode="n" horiz-adv-x="919" d="M750 1011q9 0 15.5 -6t6.5 -15v-970q0 -8 -6.5 -14t-15.5 -6h-105q-9 0 -14.5 6t-5.5 14v857q0 8 -9 8h-301q-9 0 -14.5 -7t-5.5 -16v-842q0 -8 -6.5 -14t-16.5 -6h-104q-9 0 -15 6t-6 14v970q0 20 21 21h98q9 0 16 -6t7 -15v-69l61 77q9 12 27 13h373z" />
<glyph unicode="o" horiz-adv-x="919" d="M147 877q0 19 13 34l67 88q12 12 29 13h494q9 0 15.5 -6t6.5 -15v-969q0 -8 -6.5 -14.5t-15.5 -6.5h-582q-9 0 -15 6t-6 15v855zM295 135q0 -8 8 -8h313q8 0 9 8v743q0 8 -9 8h-313q-8 0 -8 -8v-743z" />
<glyph unicode="p" horiz-adv-x="919" d="M295 -251q0 -19 -12 -35l-70 -86q-8 -14 -27 -14h-18q-8 0 -14.5 6.5t-6.5 15.5v1354q0 8 6 14.5t15 6.5h100q8 0 14.5 -6.5t6.5 -14.5v-71l61 79q12 12 29 13h371q9 0 15.5 -6.5t6.5 -14.5v-970q0 -9 -6.5 -14.5t-15.5 -5.5h-367q-17 0 -27 12l-61 80v-343zM295 148 q0 -9 5.5 -15.5t14.5 -6.5h301q8 0 9 8v743q0 8 -9 8h-301q-9 0 -14.5 -7t-5.5 -16v-714z" />
<glyph unicode="q" horiz-adv-x="919" d="M625 92l-62 -80q-12 -12 -28 -12h-367q-8 0 -14.5 5.5t-6.5 14.5v970q0 8 6.5 14.5t14.5 6.5h373q17 0 26 -13l62 -79v71q0 8 6.5 14.5t15.5 6.5h99q9 0 15.5 -6.5t6.5 -14.5v-1241q0 -19 -12 -35l-70 -86q-8 -14 -26 -14h-19q-8 0 -14 6.5t-6 15.5v456zM625 862 q0 9 -7 16t-16 7h-299q-8 0 -8 -8v-743q0 -8 8 -8h299q9 0 16 6.5t7 15.5v714z" />
<glyph unicode="r" horiz-adv-x="715" d="M476 897q-9 -12 -26 -12h-133q-9 0 -15.5 -7t-6.5 -16v-839q0 -9 -5.5 -16t-15.5 -7h-104q-9 0 -16 6.5t-7 16.5v965q0 9 7 16t16 7h98q9 0 16 -7t7 -16v-69l61 77q5 8 12 11.5t15 3.5h279q9 0 16 -7t7 -16v-160q0 -9 -6.5 -15.5t-16.5 -6.5h-98q-9 0 -15.5 6.5 t-6.5 15.5v135l-7 4z" />
<glyph unicode="s" horiz-adv-x="715" d="M455 1011q9 0 15.5 -6t6.5 -15v-85q0 -9 -6.5 -14.5t-15.5 -5.5h-208q-8 0 -8 -8v-244q0 -8 8 -8h355q9 0 16 -7t7 -16v-582q0 -9 -7 -14.5t-16 -5.5h-502q-9 0 -15.5 5.5t-6.5 14.5v85q0 9 6.5 15t15.5 6h369q8 0 8 8v363q0 8 -8 8h-355q-9 0 -16 6.5t-7 15.5v349 q0 19 12 34l68 88q12 12 29 13h255z" />
<glyph unicode="t" horiz-adv-x="577" d="M392 996q6 6 13 10.5t16 4.5h129q9 0 15.5 -7t6.5 -16v-82q0 -9 -6.5 -15t-15.5 -6h-197q-9 0 -15.5 -6t-6.5 -15v-844q0 -20 -21 -20h-104q-9 0 -16 5.5t-7 14.5v857q0 8 -8 8h-96q-9 0 -16 6.5t-7 15.5v81q0 9 7 16t16 7h96q8 0 8 8v243q0 19 13 34l69 88q9 12 27 13 h18q9 0 15 -6.5t6 -14.5v-457z" />
<glyph unicode="u" horiz-adv-x="885" d="M738 20q0 -20 -20 -20h-101q-9 0 -15.5 5.5t-6.5 14.5v70l-61 -78q-9 -12 -27 -12h-339q-20 0 -21 20v970q0 20 21 21h104q9 0 16 -6t7 -15v-856q0 -8 8 -8h267q9 0 15 6.5t6 15.5v842q0 9 6.5 15t15.5 6h105q20 0 20 -21v-970z" />
<glyph unicode="v" horiz-adv-x="857" d="M584 990q0 8 5.5 14.5t14.5 6.5h105q9 0 15.5 -6.5t6.5 -14.5v-731q0 -8 -6.5 -14t-15.5 -6h-99q-8 0 -8 -9v-84q0 -20 -20 -20h-82q-8 0 -8 -8v-98q0 -9 -7 -14.5t-16 -5.5h-83q-20 0 -20 20v98q0 8 -9 8h-82q-9 0 -15.5 5.5t-6.5 14.5v84q0 8 -8 9h-99q-9 0 -14.5 6.5 t-5.5 15.5v727q0 9 5.5 16t14.5 7h105q9 0 15.5 -7t6.5 -16v-741q0 -8 9 -8h76q9 0 15 -6.5t6 -14.5v-84q0 -8 8 -8h81q8 0 8 8v84q0 8 6.5 14.5t16.5 6.5h76q8 0 9 8v743z" />
<glyph unicode="w" horiz-adv-x="1161" d="M629 625q9 0 15.5 -6t6.5 -15v-357q0 -8 8 -8h93q9 0 15.5 -6t6.5 -15v-84q0 -8 8 -8h73q8 0 8 8v856q0 9 7 15t16 6h104q20 0 21 -21v-970q0 -20 -21 -20h-197q-20 0 -21 20v98q0 8 -8 8h-95q-8 0 -14.5 6.5t-6.5 15.5v82q0 8 -8 9h-122q-8 0 -8 -9v-82q0 -9 -6 -15.5 t-15 -6.5h-95q-8 0 -8 -8v-98q0 -20 -20 -20h-198q-20 0 -21 20v970q0 20 21 21h104q9 0 16 -6t7 -15v-856q0 -8 8 -8h73q8 0 8 8v84q0 9 6.5 15t16.5 6h92q8 0 8 8v357q0 9 6.5 15t15.5 6h100v0z" />
<glyph unicode="x" horiz-adv-x="694" d="M637 126q9 0 15.5 -6.5t6.5 -16.5v-83q0 -9 -6.5 -14.5t-15.5 -5.5h-105q-20 0 -20 20v98q0 8 -8 8h-90q-9 0 -16 5.5t-7 14.5v84q0 8 -8 9h-74q-8 0 -8 -9v-84q0 -9 -6.5 -14.5t-15.5 -5.5h-88q-8 0 -8 -8v-98q0 -9 -6.5 -14.5t-15.5 -5.5h-106q-20 0 -20 20v83 q0 9 5.5 16t14.5 7h90q8 0 9 8v82q0 9 6 16t14 7h91q8 0 8 8v517q0 8 -8 8h-89q-9 0 -15.5 6.5t-6.5 16.5v82q0 8 -9 8h-79q-9 0 -16 6.5t-7 15.5v83q0 8 6.5 14.5t16.5 6.5h97q9 0 14.5 -6.5t5.5 -14.5v-97q0 -8 8 -8h88q9 0 15.5 -6.5t6.5 -14.5v-84q0 -8 8 -8h74q8 0 8 8 v84q0 9 6.5 15t16.5 6h90q8 0 8 8v97q0 8 6 14.5t16 6.5h98q9 0 14.5 -6.5t5.5 -14.5v-83q0 -9 -5.5 -15.5t-14.5 -6.5h-85q-8 0 -8 -8v-82q0 -9 -7 -16t-16 -7h-87q-8 0 -8 -8v-517q0 -8 8 -8h89q9 0 15 -7t6 -16v-82q0 -8 8 -8h90z" />
<glyph unicode="y" horiz-adv-x="898" d="M618 135q-5 -9 -17 -9h-80q-8 0 -8 -8v-98q0 -9 -6.5 -14.5t-16.5 -5.5h-103q-20 0 -20 20v98q0 8 -9 8h-83q-9 0 -15.5 5.5t-6.5 14.5v84q0 8 -8 9h-99q-9 0 -14.5 6.5t-5.5 15.5v727q0 9 5.5 16t14.5 7h105q9 0 15.5 -7t6.5 -16v-741q0 -8 9 -8h77q9 0 15 -6.5t6 -14.5 v-84q0 -8 8 -8h100q8 0 9 8v84q0 8 6.5 14.5t15.5 6.5h76q8 0 8 8v743q0 5 3 10q5 10 18 11h106q20 0 21 -21v-1354q0 -9 -6 -15.5t-15 -6.5h-346q-8 0 -13 5t-5 13v17q0 13 12 22l74 60q8 5 14.5 7.5t15.5 2.5h131q8 0 9 8v384l-4 2v0z" />
<glyph unicode="z" horiz-adv-x="602" d="M35 104v4.5t2 4.5l323 680l72 92h-348q-9 0 -16 6t-7 14v85q0 9 7 15t16 6h455q20 0 20 -21v-85v-4t-2 -4l-324 -679l-71 -92h385q20 0 20 -21v-85q0 -20 -20 -20h-492q-20 0 -20 20v84z" />
<glyph unicode="{" horiz-adv-x="569" d="M394 1534q-8 0 -8 -8v-790q0 -9 -5.5 -15.5t-14.5 -6.5h-62q-8 0 -8 -8v-39q0 -5 -4 -9t-10 -4h-125q-8 0 -9 -8v-41q0 -8 9 -8h125q6 0 10 -3.5t4 -8.5v-39q0 -8 8 -8h62q9 0 14.5 -7t5.5 -16v-788q0 -8 8 -9h62q9 0 15.5 -6.5t6.5 -15.5v-60q0 -9 -6.5 -15.5 t-15.5 -6.5h-195q-9 0 -15.5 6.5t-6.5 15.5v863q0 8 -9 8h-69q-5 0 -9 3.5t-4 8.5v53q0 8 -8 9h-35q-6 0 -10 3.5t-4 8.5v65q0 5 4 9t10 4h35q8 0 8 8v53q0 5 4 8.5t9 3.5h69q8 0 9 9v860q0 9 6.5 15.5t15.5 6.5h195q9 0 15.5 -6.5t6.5 -15.5v-57q0 -9 -6.5 -15.5 t-15.5 -6.5h-62v0z" />
<glyph unicode="|" horiz-adv-x="442" d="M147 1613q0 9 6 15.5t15 6.5h104q9 0 16 -6.5t7 -15.5v-1977q0 -9 -6.5 -15.5t-16.5 -6.5h-104q-9 0 -15 6.5t-6 15.5v1977z" />
<glyph unicode="}" horiz-adv-x="569" d="M175.024 1534q7.99902 0 7.99902 -8v-790q0 -9 5.5 -15.5q5.49902 -6.5 14.499 -6.5h61.9961q7.99902 0 7.99902 -8v-39q0 -5 4 -9t10 -4h124.992q7.99902 0 8.99902 -8v-41q0 -8 -8.99902 -8h-124.992q-6 0 -10 -3.5t-4 -8.5v-39q0 -8 -7.99902 -8h-61.9961 q-9 0 -14.499 -7q-5.5 -7 -5.5 -16v-788q0 -8 -7.99902 -9h-61.9971q-8.99902 0 -15.499 -6.5q-6.49902 -6.5 -6.49902 -15.5v-60q0 -9 6.49902 -15.5q6.5 -6.5 15.499 -6.5h194.988q9 0 15.499 6.5q6.5 6.5 6.5 15.5v863q0 8 8.99902 8h68.9961q5 0 9 3.5 q3.99902 3.5 3.99902 8.5v53q0 8 8 9h34.998q5.99902 0 9.99902 3.5t4 8.5v65q0 5 -4 9t-9.99902 4h-34.998q-8 0 -8 8v53q0 5 -3.99902 8.5q-4 3.5 -9 3.5h-68.9961q-7.99902 0 -8.99902 9v860q0 9 -6.5 15.5q-6.49902 6.5 -15.499 6.5h-194.988q-8.99902 0 -15.499 -6.5 q-6.49902 -6.5 -6.49902 -15.5v-57q0 -9 6.49902 -15.5q6.5 -6.5 15.499 -6.5h61.9971v0z" />
<glyph unicode="~" horiz-adv-x="1126" d="M787 504q8 0 9 8v125q0 14 14 14h211q14 0 14 -14v-121q0 -5 -4 -8.5t-10 -3.5h-213q-8 0 -8 -8v-127q0 -5 -4 -9t-11 -4h-211q-6 0 -10 4t-4 9v127q0 8 -8 8h-213q-8 0 -8 -8v-127q0 -5 -4 -9t-11 -4h-211q-6 0 -10 4t-4 9v120q0 14 14 15h213q8 0 9 8v125q0 6 3.5 10 t8.5 4h213q12 0 12 -14v-125q0 -8 8 -8h215z" />
<glyph unicode="&#xa1;" horiz-adv-x="532" d="M340 -216q0 -9 -6 -16t-15 -7h-104q-9 0 -15.5 7t-6.5 16l10 1353q0 9 6.5 14.5t15.5 5.5h82q9 0 16 -5.5t7 -14.5zM385 1452q0 -24 -16 -39.5t-39 -15.5h-127q-24 0 -40 15.5t-16 39.5v128q0 24 16 39.5t40 15.5h127q24 0 39.5 -15.5t15.5 -39.5v-128z" />
<glyph unicode="&#xa2;" horiz-adv-x="777" d="M168 0q-8 0 -14.5 5.5t-6.5 14.5v970q0 8 6.5 14.5t14.5 6.5h252v126q0 9 6.5 14.5t15.5 5.5h82q9 0 16 -5.5t7 -14.5v-126h119q9 0 14.5 -6.5t5.5 -14.5v-85q0 -20 -20 -20h-363q-8 0 -8 -8v-743q0 -8 8 -8h356q9 0 15 -6t6 -15v-85q0 -20 -21 -20h-112v-125 q0 -9 -6.5 -15.5t-16.5 -6.5h-82q-9 0 -15.5 6.5t-6.5 15.5v125h-252z" />
<glyph unicode="&#xa3;" horiz-adv-x="860" d="M119 484q0 20 20 21h48q8 0 9 8v477q0 9 6.5 15t15.5 6h197q9 0 15.5 -6t6.5 -15l-20 -85q0 -8 -7 -14t-16 -6h-43q-8 0 -8 -8v-350q0 -9 6.5 -15.5t16.5 -6.5h228q8 0 14 -5.5t6 -15.5l-13 -77q0 -8 -6 -14.5t-14 -6.5h-134q-14 0 -22 8l-82 63v-323q0 -8 8 -8h484 q8 0 14 -5.5t6 -15.5v-85q0 -8 -6 -14t-14 -6h-721q-9 0 -16 6t-7 14v82q0 9 6.5 16t16.5 7h73q8 0 9 8v247q0 8 -9 8h-61q-9 0 -15 6t-6 15z" />
<glyph unicode="&#xa4;" horiz-adv-x="1007" d="M911 436q6 -8 4.5 -14t-10.5 -6h-104q-9 0 -20 6t-17 14l-47 69h-461l-47 -69q-6 -8 -17 -14t-20 -6h-104q-9 0 -11 6t4 14l113 156v629l-113 155q-13 20 7 21h104q9 0 20 -6t17 -15l47 -65h461l47 65q6 9 17 15t20 6h104q19 0 6 -21l-112 -155v-629zM322 633q0 -8 8 -8 h313q8 0 8 8v543q0 8 -8 8h-313q-8 0 -8 -8v-543z" />
<glyph unicode="&#xa5;" horiz-adv-x="954" d="M295 171q0 9 6.5 16t15.5 7h86v101h-190q-9 0 -16 6.5t-7 15.5v50q0 9 7 14.5t16 5.5h190v110q0 8 -8 8h-225q-9 0 -16 6.5t-7 15.5v463q0 9 7 15t16 6h104q20 0 21 -21v-357q0 -8 8 -8h348q8 0 8 8v357q0 9 7 15t16 6h104q20 0 21 -21v-463q0 -9 -5.5 -15.5t-15.5 -6.5 h-227q-8 0 -8 -8v-110h192q8 0 14.5 -5.5t6.5 -14.5v-50q0 -9 -6 -15.5t-15 -6.5h-192v-101h88q8 0 14 -7t6 -16v-23q0 -9 -6 -15.5t-14 -6.5h-88v-106q0 -20 -21 -20h-104q-9 0 -16 5.5t-7 14.5v106h-86q-9 0 -15.5 6.5t-6.5 15.5v23z" />
<glyph unicode="&#xa6;" horiz-adv-x="442" d="M147 365q0 9 6 15.5t15 6.5h104q9 0 16 -6.5t7 -15.5v-729q0 -9 -6.5 -15.5t-16.5 -6.5h-104q-9 0 -15 6.5t-6 15.5v729zM147 1613q0 9 6 15.5t15 6.5h104q9 0 16 -6.5t7 -15.5v-727q0 -9 -6.5 -16t-16.5 -7h-104q-9 0 -15 7t-6 16v727z" />
<glyph unicode="&#xa7;" horiz-adv-x="1108" d="M862 505q8 0 8 8v364q0 8 -8 8h-426q-20 0 -20 20v97q0 8 -8 9h-97q-8 0 -8 -9v-369q0 -8 8 -8h426q9 0 15 -7t6 -16v-89q0 -8 8 -8h96zM416 1510q0 9 5.5 16t14.5 7h365q9 0 15.5 -6.5t6.5 -16.5v-82q0 -9 -6.5 -15.5t-15.5 -6.5h-230q-8 0 -8 -8v-379q0 -8 8 -8h426 q9 0 15 -6.5t6 -14.5v-583q0 -20 -21 -21h-231q-8 0 -8 -8v-358q0 -20 -21 -20h-569q-9 0 -15 6t-6 14v83q0 9 6.5 16t14.5 7h434q8 0 8 8v363q0 8 -8 8h-426q-9 0 -14.5 6.5t-5.5 15.5v608q0 9 5.5 15.5t14.5 6.5h232q8 0 8 8v345z" />
<glyph unicode="&#xa8;" horiz-adv-x="513" d="M81 1254q0 6 5 11.5t13 5.5h79q8 0 13.5 -5t5.5 -12v-80q0 -6 -5.5 -11.5t-13.5 -5.5h-79q-8 0 -13 5t-5 12v80zM315 1254q0 6 5.5 11.5t13.5 5.5h81q8 0 12.5 -5t4.5 -12v-80q0 -6 -4.5 -11.5t-12.5 -5.5h-81q-8 0 -13.5 5t-5.5 12v80z" />
<glyph unicode="&#xa9;" horiz-adv-x="1487" d="M204 487h1024v1046h-1024v-1046zM91 1565q0 30 20 49.5t50 19.5h1110q30 0 49.5 -20t19.5 -49v-1109q0 -30 -20 -50t-49 -20h-1110q-30 0 -50 20t-20 50v1109zM919 1397q8 0 13 -5.5t5 -11.5v-69q0 -8 -5 -13.5t-13 -5.5h-297q-6 0 -7 -6v-550q0 -8 7 -8h301q8 0 13 -5 t5 -11v-70q0 -8 -5 -13t-13 -5h-414q-8 0 -12 5t-4 13v738q0 6 4 11.5t12 5.5h410z" />
<glyph unicode="&#xaa;" horiz-adv-x="464" d="M271.937 434q-3.79004 0 -6.86914 2.83887t-3.0791 6.62402v35.959l-30.7949 -39.7441q-5.21094 -5.67773 -12.791 -5.67773h-173.395q-4.26367 0 -7.58008 2.83887t-3.31641 6.62402v275.37q0 4.25879 3.08008 7.57031q3.0791 3.31152 7.81641 3.31152h173.395 q7.10645 0 12.791 -7.09668l28.8994 -36.9053v163.234q0 3.78516 -3.79004 3.78516h-98.541q-4.26367 0 -7.34277 2.83984q-3.08008 2.83789 -3.08008 6.62305v40.2178q0 4.25879 3.08008 7.09668q3.0791 2.83984 7.34277 2.83984h162.498q3.79004 0 6.86914 -2.83984 q3.08008 -2.83789 3.08008 -7.09668v-458.95q0 -3.78516 -3.08008 -6.62402q-3.0791 -2.83887 -6.86914 -2.83887h-48.3232zM104.228 497.401q0 -3.78516 3.79004 -3.78516h142.6q3.79102 0 6.63281 3.0752q2.84277 3.07617 2.84277 7.33398v158.977 q0 4.25781 -2.84277 7.09766q-2.8418 2.83789 -6.63281 2.83789h-142.6q-3.79004 0 -3.79004 -3.78516v-171.751zM24.5303 535.839q0 4.20898 3.31641 7.24902t7.58008 3.04004h275.251q3.79102 0 6.87012 -3.04004t3.0791 -7.24902v-38.3525q0 -4.20898 -2.84277 -7.4834 q-2.8418 -3.27441 -7.10645 -3.27441h-275.251q-4.26367 0 -7.58008 3.27441t-3.31641 7.4834v38.3525z" />
<glyph unicode="&#xab;" horiz-adv-x="994" d="M207 625l301 -379h-361v759h364zM635 625l300 -379h-361l1 759h362z" />
<glyph unicode="&#xac;" horiz-adv-x="1124" d="M56 547q0 9 7 14.5t16 5.5h967q9 0 15.5 -5.5t6.5 -14.5v-347q0 -8 -6.5 -14.5t-15.5 -6.5h-105q-8 0 -14 6t-6 15v239h-842q-9 0 -16 6.5t-7 14.5v87z" />
<glyph unicode="&#xad;" horiz-adv-x="737" d="M56 547q0 9 7 15.5t16 6.5h581q8 0 14.5 -6.5t6.5 -15.5v-82q0 -9 -6 -16t-15 -7h-581q-9 0 -16 7t-7 16v82z" />
<glyph unicode="&#xae;" horiz-adv-x="1487" d="M552 1026q0 -14 16 -14h281q6 0 6 6v282q0 4 -6 5h-291q-6 0 -6 -5v-274zM962 1343v-407q0 -6 -4.5 -11t-10.5 -5h-143l47 -58q2 -5 3 -8t1 -8v-126q0 -3 2 -4.5t4 -1.5h113q14 0 14 -17v-59q0 -14 -14 -14h-211q-14 0 -14 14v267q0 14 -15 15h-119q-11 0 -18 10l-45 55 v-347q0 -14 -16 -14h-74q-16 0 -17 14v742q0 6 4.5 11.5t12.5 5.5h485q6 0 10.5 -5.5t4.5 -11.5v-37zM204 487h1024v1046h-1024v-1046zM91 1566q0 30 20 49.5t50 19.5h1110q30 0 49.5 -20t19.5 -49v-1110q0 -30 -20 -50t-49 -20h-1110q-30 0 -50 20t-20 50v1110z" />
<glyph unicode="&#xaf;" horiz-adv-x="679" d="M147 1235q0 6 4 10t9 4h360q5 0 8.5 -4t3.5 -10v-64q0 -6 -3.5 -10t-8.5 -4h-360q-5 0 -9 4t-4 10v64z" />
<glyph unicode="&#xb0;" horiz-adv-x="425" d="M22 1386q0 10 10 11h291q5 0 8.5 -2.5t3.5 -8.5v-365q0 -5 -3.5 -7.5t-8.5 -2.5h-291q-10 0 -10 10v365zM95 1076q0 -4 4 -4h158q4 0 4 4v255q0 4 -4 4h-158q-4 0 -4 -4v-255z" />
<glyph unicode="&#xb1;" horiz-adv-x="1046" d="M93 -139q0 9 6 14.5t15 5.5h821q20 0 20 -20v-78q0 -8 -5.5 -14.5t-14.5 -6.5h-821q-8 0 -14.5 6.5t-6.5 14.5v78zM450 918q0 9 6.5 15.5t15.5 6.5h105q8 0 14 -6.5t6 -15.5v-349q0 -8 8 -8h328q9 0 15.5 -6.5t6.5 -15.5v-74q0 -9 -6.5 -16t-15.5 -7h-328q-8 0 -8 -8 v-355q0 -9 -6 -16t-14 -7h-105q-9 0 -15.5 7t-6.5 16v355q0 8 -9 8h-327q-9 0 -16 7t-7 16v74q0 9 6.5 15.5t16.5 6.5h327q8 0 9 8v349z" />
<glyph unicode="&#xb2;" horiz-adv-x="474" d="M77.123 434q-7.57129 0 -12.7764 6.15723l-26.9727 34.1016q-3.3125 4.73633 -3.3125 9.94629v123.145q0 14.6826 5.67871 27.2344q5.67871 12.5508 15.1426 21.7871q9.46387 9.23535 22.2402 14.9189q12.7773 5.68359 26.9727 5.68359h152.846q6.625 0 11.5938 4.49902 q4.96875 4.5 4.96875 12.0781v143.037q0 7.10449 -4.73242 11.8408q-4.73145 4.73633 -11.8301 4.73633h-152.372q-4.25879 0 -7.57129 3.0791q-3.3125 3.07812 -3.3125 7.34082v38.3643q0 4.2627 3.07617 7.57812q3.0752 3.31543 7.80762 3.31543h168.935 q14.6689 0 27.209 -5.68359t22.0039 -15.1562q9.46484 -9.47266 14.9062 -22.2607t5.44141 -26.9971v-155.825q0 -14.6826 -5.44141 -27.4707t-14.9062 -22.2607q-9.46387 -9.47266 -22.0039 -14.9189q-12.54 -5.44727 -27.209 -5.44727h-153.318q-6.625 0 -11.3574 -4.5 q-4.73242 -4.49902 -4.73242 -12.0771v-102.778q0 -3.78906 3.78613 -3.78906h227.612q4.25879 0 7.57031 -2.8418q3.3125 -2.8418 3.3125 -7.10449v-40.2588q0 -4.2627 -3.3125 -6.86719q-3.31152 -2.60547 -7.57031 -2.60547h-258.371v0z" />
<glyph unicode="&#xb3;" horiz-adv-x="424" d="M207.449 695.024q-1.4209 -1.89453 -0.473633 -4.02637q0.947266 -2.13086 3.31543 -2.13086h57.3096q14.6826 0 27.2334 -5.68359q12.5518 -5.68359 22.0244 -15.1562t15.1562 -22.0234q5.68359 -12.5518 5.68359 -27.2344v-114.146q0 -14.6826 -5.68359 -27.4707 t-15.1562 -22.0244q-9.47266 -9.23535 -22.0244 -14.6816q-12.5508 -5.44727 -27.2334 -5.44727h-198.926q-8.99902 0 -17.0508 3.31543t-13.9717 9.23535q-5.9209 5.9209 -9.23633 13.7363q-3.31543 7.81445 -3.31543 16.3398v60.625q0 4.2627 3.0791 7.10449 q3.07812 2.8418 7.81445 2.8418h49.2578q3.78906 0 6.86719 -2.8418q3.0791 -2.8418 3.0791 -7.10449v-39.7852q0 -3.78906 3.78906 -3.78906h152.036q7.10449 0 11.8408 4.73633t4.73633 11.8408v104.673q0 5.68359 -3.78906 9.70898q-3.78906 4.02637 -9.94629 4.02637 h-71.9922q-7.57812 0 -13.2617 6.15723l-21.3135 26.9971q-9.47266 12.7881 -9.23535 27.4707q0.236328 14.6826 9.70898 26.5234l106.567 128.354q1.89453 2.8418 0 5.20996l-1.89453 2.36816q-0.947266 1.4209 -2.8418 1.4209h-156.772q-4.2627 0 -7.10449 3.0791 q-2.8418 3.07812 -2.8418 6.86719v39.3115q0 4.2627 2.8418 7.34082q2.8418 3.0791 7.10449 3.0791h179.507q8.05176 0 13.2617 -6.63086q1.4209 -2.36816 5.68359 -7.34082q4.2627 -4.97363 8.99902 -11.1309q5.20996 -6.63086 11.3672 -14.209 q9.47266 -12.3145 9.47266 -25.8125q0 -13.499 -12.7881 -28.1816z" />
<glyph unicode="&#xb4;" horiz-adv-x="526" d="M379 1157h-232l232 182v-182z" />
<glyph unicode="&#xb5;" horiz-adv-x="827" d="M680 20q0 -20 -21 -20h-100q-9 0 -15.5 5.5t-6.5 14.5v70l-62 -78q-9 -12 -26 -12h-154v-364q0 -9 -6.5 -15.5t-16.5 -6.5h-104q-8 0 -14.5 6.5t-6.5 15.5v1354q0 8 6.5 14.5t14.5 6.5h104q9 0 16 -6.5t7 -14.5v-856q0 -8 8 -8h209q9 0 14.5 6.5t5.5 15.5v842q0 8 7 14.5 t16 6.5h104q9 0 15 -6.5t6 -14.5v-970z" />
<glyph unicode="&#xb6;" horiz-adv-x="1191" d="M1080 1397q20 0 21 -21v-86q0 -8 -5.5 -14t-15.5 -6h-174q-8 0 -8 -8v-1478q0 -9 -6.5 -16t-15.5 -7h-82q-9 0 -16 7t-7 16v1478q0 8 -8 8h-131q-8 0 -8 -8v-1478q0 -9 -6 -16t-15 -7h-104q-9 0 -16 7t-7 16v968q0 20 -20 20h-127q-49 0 -92.5 19t-76 52t-51 76.5 t-18.5 92.5v147q0 49 18.5 92t51 75.5t76 51.5t92.5 19h751v0z" />
<glyph unicode="&#xb7;" horiz-adv-x="471" d="M147 360q0 11 8 19t17 8h127q11 0 18 -7.5t7 -19.5v-124q0 -11 -7 -19t-18 -8h-127q-9 0 -17 7.5t-8 19.5v124z" />
<glyph unicode="&#xb8;" horiz-adv-x="569" d="M374 -294q5 0 8.5 3.5t3.5 8.5v126q0 8 -8 9h-117q-9 0 -15.5 6t-6.5 14v168h108v-41h-8q-8 0 -8 -8v-68q0 -8 8 -8h104q14 0 24.5 -9.5t10.5 -25.5v-210q0 -24 -16.5 -40.5t-40.5 -16.5h-316q-14 0 -14 14v11q0 10 8 18l56 43q9 6 20 6h199v0z" />
<glyph unicode="&#xb9;" horiz-adv-x="295" d="M23.5195 483.731q0 4.2627 3.31543 7.10449t7.57715 2.8418h41.6748q3.78809 0 3.78809 3.78906v292.705q0 3.78906 -3.78809 3.78906h-29.3623q-3.78809 0 -6.62988 2.60547q-2.84082 2.60449 -2.84082 6.86719v39.7852q0 4.2627 2.84082 7.10449 q2.8418 2.8418 6.62988 2.8418h29.3623q3.78809 0 3.78809 3.78906v45.9424q0 4.2627 3.07812 7.10449t7.81445 2.8418h49.251q9.47168 0 9.94531 -9.94629v-405.43q0 -3.78906 3.78809 -3.78906h42.6221q4.26172 0 7.33984 -2.60547q3.07812 -2.60449 3.07812 -7.34082 v-40.2588q0 -4.2627 -3.07812 -6.86719q-3.07812 -2.60547 -7.33984 -2.60547h-161.962q-4.26172 0 -7.57715 2.60547q-3.31543 2.60449 -3.31543 6.86719v40.2588z" />
<glyph unicode="&#xba;" horiz-adv-x="408" d="M46.6416 848.947q0 8.99023 6.15918 16.0879l31.7412 41.6367q5.68555 5.67773 13.7393 6.15039h234.035q4.26367 0 7.34277 -2.83887t3.0791 -7.09668v-458.478q0 -3.78516 -3.0791 -6.86035q-3.0791 -3.07617 -7.34277 -3.07617h-275.726q-4.26367 0 -7.10645 2.83984 q-2.84277 2.83789 -2.84277 7.09668v404.538zM116.758 497.875q0 -3.78516 3.79004 -3.78516h148.285q3.79004 0 4.26367 3.78516v351.546q0 3.78516 -4.26367 3.78516h-148.285q-3.79004 0 -3.79004 -3.78516v-351.546zM24.5303 535.839q0 4.20898 3.31641 7.24902 t7.58008 3.04004h275.251q3.79102 0 6.87012 -3.04004t3.0791 -7.24902v-38.3525q0 -4.20898 -2.84277 -7.4834q-2.8418 -3.27441 -7.10645 -3.27441h-275.251q-4.26367 0 -7.58008 3.27441t-3.31641 7.4834v38.3525z" />
<glyph unicode="&#xbb;" horiz-adv-x="993" d="M482 1006h363l1 -759h-361l301 379zM56 1006h363v-759h-361l300 379z" />
<glyph unicode="&#xbc;" horiz-adv-x="1051" d="M628 999q4 11 15 12h52q5 0 6.5 -3.5t-0.5 -8.5l-482 -988q-6 -11 -16 -11h-52q-11 0 -6 11zM89 558q0 10 11 10h44q4 0 4 4v310q0 4 -4 4h-30q-10 0 -11 10v42q0 10 11 10h30q4 0 4 4v48q0 10 12 11h52q10 0 10 -11v-428q0 -4 4 -4h45q11 0 12 -10v-42q0 -10 -12 -10 h-171q-11 0 -11 10v42zM574 204q-9 0 -13 6l-29 37q-4 4 -4 11v173q0 10 12 10h52q10 0 10 -10v-161q0 -4 4 -4h168q10 0 10 12v217q0 10 12 10h52q10 0 10 -10v-225q0 -4 4 -4h31q11 0 11 -10v-39q0 -11 -11 -11h-31q-4 0 -4 -4v-193q0 -10 -10 -10h-52q-11 0 -12 10v231 l-41 -33q-5 -3 -10 -3h-159z" />
<glyph unicode="&#xbd;" horiz-adv-x="1053" d="M632 999q4 11 15 12h52q5 0 7 -3.5t0 -8.5l-483 -988q-6 -11 -16 -11h-52q-11 0 -5 11zM89 558q0 10 11 10h44q4 0 4 4v310q0 4 -4 4h-30q-10 0 -11 10v42q0 10 11 10h30q4 0 4 4v48q0 10 12 11h52q10 0 10 -11v-428q0 -4 4 -4h45q11 0 12 -10v-42q0 -10 -12 -10h-171 q-11 0 -11 10v42zM575 0q-8 0 -14 6l-27 36q-4 5 -5 11v129q0 31 22 52.5t52 21.5h162q7 0 12 4.5t5 12.5v152q0 8 -5 12.5t-12 4.5h-161q-11 0 -11 12v40q0 11 11 11h178q31 0 52.5 -22t21.5 -52v-165q0 -31 -21.5 -52t-52.5 -21h-161q-7 0 -12.5 -5t-5.5 -13v-108 q0 -4 4 -5h241q11 0 11 -10v-42q0 -10 -11 -10h-273z" />
<glyph unicode="&#xbe;" horiz-adv-x="1170" d="M722 999q4 11 15 12h53q5 0 6.5 -3.5t-0.5 -8.5l-483 -988q-6 -11 -16 -11h-52q-11 0 -5 11zM267 779q-2 -2 -0.5 -4t3.5 -2h61q31 0 52 -21.5t21 -52.5v-119q0 -31 -21.5 -52.5t-51.5 -21.5h-210q-19 0 -32.5 13t-13.5 32v63q0 10 11 11h52q10 0 10 -11v-42q0 -4 5 -4 h160q8 0 13 5.5t5 12.5v110q0 14 -15 15h-75q-7 0 -15 7l-22 28q-10 12 -10 28.5t11 28.5l111 135q2 4 0 5l-2 3q0 1 -3 1h-165q-10 0 -10 11v41q0 11 10 12h190q9 0 13 -7q2 -2 6 -8t10 -12q5 -7 12 -15q22 -27 -3 -57zM692 204q-8 0 -14 6l-29 37q-3 4 -3 11v173 q0 10 11 10h53q10 0 10 -10v-161q0 -4 4 -4h168q10 0 10 12v217q0 10 11 10h53q10 0 10 -10v-225q0 -4 5 -4h31q11 0 11 -10v-39q0 -11 -11 -11h-31q-5 0 -5 -4v-193q0 -10 -10 -10h-53q-11 0 -11 10v231l-41 -33q-5 -3 -10 -3h-159z" />
<glyph unicode="&#xbf;" horiz-adv-x="1068" d="M864 -23q0 9 6.5 16t14.5 7h104q9 0 16 -6.5t7 -16.5v-123q0 -49 -19 -93t-51.5 -76.5t-76 -51.5t-93.5 -19h-385q-49 0 -92.5 19t-76.5 51.5t-52 76t-19 93.5v531q0 50 19 93.5t52 76t76.5 51.5t92.5 19h139q8 0 9 8v355q0 9 5.5 16t14.5 7h104q9 0 16 -7t7 -16v-460 q0 -9 -6.5 -15.5t-16.5 -6.5h-272q-19 0 -36 -7t-29.5 -19.5t-19.5 -29t-7 -34.5v-586q0 -18 7 -34.5t19.5 -29t29.5 -19.5t36 -7h385q19 0 36 7t29.5 19.5t19.5 29t7 34.5v147zM488 1341q0 24 16 40t40 16h127q24 0 39.5 -16t15.5 -40v-129q0 -24 -16 -39.5t-39 -15.5h-127 q-24 0 -40 16t-16 39v129z" />
<glyph unicode="&#xc0;" horiz-adv-x="1157" d="M147 1262q0 19 13 34l67 88q12 12 29 13h719q15 0 25 -10.5t10 -24.5v-1339q0 -9 -6 -16t-15 -7h-104q-9 0 -16 6.5t-7 16.5v806l-80 -63l-11 -5.5t-11 -2.5h-465v-735q0 -9 -6.5 -16t-16.5 -7h-104q-8 0 -14.5 6.5t-6.5 16.5v1239zM307 1270q-5 0 -8.5 -3.5t-3.5 -9.5 v-352q0 -8 6 -14t14 -6h527q9 0 14.5 6t5.5 14v352q0 5 -3.5 9t-8.5 4h-543zM294 1714l232 -182h-232v182z" />
<glyph unicode="&#xc1;" horiz-adv-x="1157" d="M147 1262q0 19 13 34l67 88q12 12 29 13h719q15 0 25 -10.5t10 -24.5v-1339q0 -9 -6 -16t-15 -7h-104q-9 0 -16 6.5t-7 16.5v806l-80 -63l-11 -5.5t-11 -2.5h-465v-735q0 -9 -6.5 -16t-16.5 -7h-104q-8 0 -14.5 6.5t-6.5 16.5v1239zM307 1270q-5 0 -8.5 -3.5t-3.5 -9.5 v-352q0 -8 6 -14t14 -6h527q9 0 14.5 6t5.5 14v352q0 5 -3.5 9t-8.5 4h-543zM862 1534h-232l232 182v-182z" />
<glyph unicode="&#xc2;" horiz-adv-x="1157" d="M147 1262q0 19 13 34l67 88q12 12 29 13h719q15 0 25 -10.5t10 -24.5v-1339q0 -9 -6 -16t-15 -7h-104q-9 0 -16 6.5t-7 16.5v806l-80 -63l-11 -5.5t-11 -2.5h-465v-735q0 -9 -6.5 -16t-16.5 -7h-104q-8 0 -14.5 6.5t-6.5 16.5v1239zM307 1270q-5 0 -8.5 -3.5t-3.5 -9.5 v-352q0 -8 6 -14t14 -6h527q9 0 14.5 6t5.5 14v352q0 5 -3.5 9t-8.5 4h-543zM578 1681l-194 -153v182h386v-182z" />
<glyph unicode="&#xc3;" horiz-adv-x="1157" d="M147 1262q0 19 13 34l67 88q12 12 29 13h719q15 0 25 -10.5t10 -24.5v-1339q0 -9 -6 -16t-15 -7h-104q-9 0 -16 6.5t-7 16.5v806l-80 -63l-11 -5.5t-11 -2.5h-465v-735q0 -9 -6.5 -16t-16.5 -7h-104q-8 0 -14.5 6.5t-6.5 16.5v1239zM307 1270q-5 0 -8.5 -3.5t-3.5 -9.5 v-352q0 -8 6 -14t14 -6h527q9 0 14.5 6t5.5 14v352q0 5 -3.5 9t-8.5 4h-543zM710 1622q5 0 5 4v76q0 3 3.5 6t6.5 3h127q3 0 5 -3t2 -6v-74q0 -6 -7 -6h-128q-5 0 -5 -6v-75q0 -4 -3.5 -6t-6.5 -2h-125q-9 0 -9 8v75q0 6 -4 6h-130q-4 0 -5 -6v-75q0 -8 -9 -8h-127 q-9 0 -9 8v71q0 10 9 10h128q5 0 5 4v76q0 3 2.5 6t5.5 3h130q3 0 4 -3t1 -6v-76q0 -4 6 -4h128v0z" />
<glyph unicode="&#xc4;" horiz-adv-x="1157" d="M147 1262q0 19 13 34l67 88q12 12 29 13h719q15 0 25 -10.5t10 -24.5v-1339q0 -9 -6 -16t-15 -7h-104q-9 0 -16 6.5t-7 16.5v806l-80 -63l-11 -5.5t-11 -2.5h-465v-735q0 -9 -6.5 -16t-16.5 -7h-104q-8 0 -14.5 6.5t-6.5 16.5v1239zM307 1270q-5 0 -8.5 -3.5t-3.5 -9.5 v-352q0 -8 6 -14t14 -6h527q9 0 14.5 6t5.5 14v352q0 5 -3.5 9t-8.5 4h-543zM409 1631q0 6 5 11.5t13 5.5h79q8 0 13.5 -5t5.5 -12v-80q0 -6 -5.5 -11.5t-13.5 -5.5h-79q-8 0 -13 5t-5 12v80zM643 1631q0 6 5.5 11.5t13.5 5.5h81q8 0 12.5 -5t4.5 -12v-80q0 -6 -4.5 -11.5 t-12.5 -5.5h-81q-8 0 -13.5 5t-5.5 12v80z" />
<glyph unicode="&#xc5;" horiz-adv-x="1157" d="M458 1677q0 24 16 40.5t40 16.5h126q24 0 40 -16.5t16 -40.5v-126q0 -24 -16 -40t-40 -16h-126q-24 0 -40 16.5t-16 39.5v126zM522 1696q-8 0 -14.5 -6.5t-6.5 -15.5v-120q0 -8 6.5 -14.5t14.5 -6.5h110q9 0 15 6.5t6 14.5v120q0 9 -6 15.5t-15 6.5h-110zM147 1262 q0 19 13 34l67 88q12 12 29 13h719q15 0 25 -10.5t10 -24.5v-1339q0 -9 -6 -16t-15 -7h-104q-9 0 -16 6.5t-7 16.5v806l-80 -63l-11 -5.5t-11 -2.5h-465v-735q0 -9 -6.5 -16t-16.5 -7h-104q-8 0 -14.5 6.5t-6.5 16.5v1239zM307 1270q-5 0 -8.5 -3.5t-3.5 -9.5v-352 q0 -8 6 -14t14 -6h527q9 0 14.5 6t5.5 14v352q0 5 -3.5 9t-8.5 4h-543z" />
<glyph unicode="&#xc6;" horiz-adv-x="1556" d="M295 884q0 -8 6 -14.5t14 -6.5h527q9 0 14.5 6.5t5.5 14.5v379q0 8 -8 8h-551q-8 0 -8 -8v-379zM1010 884q0 -8 6.5 -14.5t15.5 -6.5h195q9 0 15.5 -6.5t6.5 -15.5v-83q0 -9 -6.5 -16t-15.5 -7h-113q-6 0 -11.5 2.5t-10.5 5.5l-82 64v-673q0 -8 8 -8h483q20 0 21 -21v-85 q0 -8 -6 -14t-15 -6h-616q-9 0 -16 6t-7 14v787l-80 -64l-11 -5.5t-11 -2.5h-363q-6 0 -10.5 2.5t-9.5 5.5l-82 64v-787q0 -8 -6.5 -14t-16.5 -6h-104q-8 0 -14.5 6t-6.5 14v1354q0 9 6.5 15t14.5 6h1298q20 0 21 -21v-83q0 -8 -5.5 -14t-15.5 -6h-448q-8 0 -8 -8v-379z" />
<glyph unicode="&#xc7;" d="M147 1262q0 19 13 34l67 88q12 12 29 13h494q9 0 15.5 -6t6.5 -15v-85q0 -9 -6.5 -14.5t-15.5 -5.5h-447q-8 0 -8 -8v-1129q0 -8 8 -8h481q9 0 16 -5.5t7 -15.5v-85q0 -9 -6.5 -14.5t-16.5 -5.5h-616q-20 0 -21 20v1242zM147 1262q0 19 13 34l67 88q12 12 29 13h494 q9 0 15.5 -6t6.5 -15v-85q0 -9 -6.5 -14.5t-15.5 -5.5h-447q-8 0 -8 -8v-1129q0 -8 8 -8h481q9 0 16 -5.5t7 -15.5v-85q0 -9 -6.5 -14.5t-16.5 -5.5h-616q-20 0 -21 20v1242zM576 -294q5 0 8.5 3.5t3.5 8.5v126q0 8 -8 9h-117q-9 0 -15.5 6t-6.5 14v168h108v-41h-8 q-8 0 -8 -8v-68q0 -8 8 -8h104q14 0 24.5 -9.5t10.5 -25.5v-210q0 -24 -16.5 -40.5t-40.5 -16.5h-316q-14 0 -14 14v11q0 10 8 18l56 43q9 6 20 6h199v0z" />
<glyph unicode="&#xc8;" horiz-adv-x="841" d="M147 1262q0 19 13 34l67 88q12 12 29 13h494q9 0 15.5 -6t6.5 -15v-85q0 -9 -6.5 -14.5t-15.5 -5.5h-447q-8 0 -8 -8v-450l82 64q8 8 20 8h115q9 0 14.5 -7t5.5 -16v-82q0 -9 -5.5 -15.5t-14.5 -6.5h-197q-20 0 -20 -21v-603q0 -8 8 -8h481q9 0 16 -5.5t7 -15.5v-85 q0 -9 -6.5 -14.5t-16.5 -5.5h-616q-20 0 -21 20v1242v0zM294 1715l232 -182h-232v182z" />
<glyph unicode="&#xc9;" horiz-adv-x="841" d="M147 1262q0 19 13 34l67 88q12 12 29 13h494q9 0 15.5 -6t6.5 -15v-85q0 -9 -6.5 -14.5t-15.5 -5.5h-447q-8 0 -8 -8v-450l82 64q8 8 20 8h115q9 0 14.5 -7t5.5 -16v-82q0 -9 -5.5 -15.5t-14.5 -6.5h-197q-20 0 -20 -21v-603q0 -8 8 -8h481q9 0 16 -5.5t7 -15.5v-85 q0 -9 -6.5 -14.5t-16.5 -5.5h-616q-20 0 -21 20v1242v0zM649 1533h-232l232 182v-182z" />
<glyph unicode="&#xca;" horiz-adv-x="841" d="M147 1262q0 19 13 34l67 88q12 12 29 13h494q9 0 15.5 -6t6.5 -15v-85q0 -9 -6.5 -14.5t-15.5 -5.5h-447q-8 0 -8 -8v-450l82 64q8 8 20 8h115q9 0 14.5 -7t5.5 -16v-82q0 -9 -5.5 -15.5t-14.5 -6.5h-197q-20 0 -20 -21v-603q0 -8 8 -8h481q9 0 16 -5.5t7 -15.5v-85 q0 -9 -6.5 -14.5t-16.5 -5.5h-616q-20 0 -21 20v1242v0zM486 1681l-194 -153v182h386v-182z" />
<glyph unicode="&#xcb;" horiz-adv-x="841" d="M147 1262q0 19 13 34l67 88q12 12 29 13h494q9 0 15.5 -6t6.5 -15v-85q0 -9 -6.5 -14.5t-15.5 -5.5h-447q-8 0 -8 -8v-450l82 64q8 8 20 8h115q9 0 14.5 -7t5.5 -16v-82q0 -9 -5.5 -15.5t-14.5 -6.5h-197q-20 0 -20 -21v-603q0 -8 8 -8h481q9 0 16 -5.5t7 -15.5v-85 q0 -9 -6.5 -14.5t-16.5 -5.5h-616q-20 0 -21 20v1242v0zM308 1631q0 6 5 11.5t13 5.5h79q8 0 13.5 -5t5.5 -12v-80q0 -6 -5.5 -11.5t-13.5 -5.5h-79q-8 0 -13 5t-5 12v80zM542 1631q0 6 5.5 11.5t13.5 5.5h81q8 0 12.5 -5t4.5 -12v-80q0 -6 -4.5 -11.5t-12.5 -5.5h-81 q-8 0 -13.5 5t-5.5 12v80z" />
<glyph unicode="&#xcc;" horiz-adv-x="490" d="M126 1376q0 8 6.5 15t14.5 7h196q9 0 15.5 -7t6.5 -15v-83q0 -9 -6.5 -15t-15.5 -6h-24v-1145h24q9 0 15.5 -6.5t6.5 -15.5v-82q0 -9 -6.5 -15.5t-15.5 -6.5h-196q-8 0 -14.5 6t-6.5 16v82q0 8 6.5 15t14.5 7h25v1145h-25q-8 0 -14.5 6t-6.5 15v83zM91 1716l232 -182 h-232v182z" />
<glyph unicode="&#xcd;" horiz-adv-x="490" d="M126 1376q0 8 6.5 15t14.5 7h196q9 0 15.5 -7t6.5 -15v-83q0 -9 -6.5 -15t-15.5 -6h-24v-1145h24q9 0 15.5 -6.5t6.5 -15.5v-82q0 -9 -6.5 -15.5t-15.5 -6.5h-196q-8 0 -14.5 6t-6.5 16v82q0 8 6.5 15t14.5 7h25v1145h-25q-8 0 -14.5 6t-6.5 15v83zM396 1533h-232 l232 182v-182z" />
<glyph unicode="&#xce;" horiz-adv-x="490" d="M126 1376q0 8 6.5 15t14.5 7h196q9 0 15.5 -7t6.5 -15v-83q0 -9 -6.5 -15t-15.5 -6h-24v-1145h24q9 0 15.5 -6.5t6.5 -15.5v-82q0 -9 -6.5 -15.5t-15.5 -6.5h-196q-8 0 -14.5 6t-6.5 16v82q0 8 6.5 15t14.5 7h25v1145h-25q-8 0 -14.5 6t-6.5 15v83zM243 1682l-194 -153 v182h386v-182z" />
<glyph unicode="&#xcf;" horiz-adv-x="490" d="M126 1376q0 8 6.5 15t14.5 7h196q9 0 15.5 -7t6.5 -15v-83q0 -9 -6.5 -15t-15.5 -6h-24v-1145h24q9 0 15.5 -6.5t6.5 -15.5v-82q0 -9 -6.5 -15.5t-15.5 -6.5h-196q-8 0 -14.5 6t-6.5 16v82q0 8 6.5 15t14.5 7h25v1145h-25q-8 0 -14.5 6t-6.5 15v83zM78 1640q0 6 5 11.5 t13 5.5h79q8 0 13.5 -5t5.5 -12v-80q0 -6 -5.5 -11.5t-13.5 -5.5h-79q-8 0 -13 5t-5 12v80zM312 1640q0 6 5.5 11.5t13.5 5.5h81q8 0 12.5 -5t4.5 -12v-80q0 -6 -4.5 -11.5t-12.5 -5.5h-81q-8 0 -13.5 5t-5.5 12v80z" />
<glyph unicode="&#xd0;" horiz-adv-x="1067" d="M22 843q0 9 6.5 14.5t15.5 5.5h504q9 0 15.5 -5.5t6.5 -14.5v-84q0 -8 -6.5 -14.5t-15.5 -6.5h-504q-9 0 -15.5 6.5t-6.5 14.5v84zM147 0v1374q0 9 6 16t15 7h100q8 0 14.5 -7t6.5 -16v-59l82 74q8 8 22 8h418q16 0 28 -14l68 -87q12 -17 13 -34v-1127q0 -19 -13 -35 l-68 -87q-10 -13 -28 -13h-664zM295 126h455q9 0 15.5 6.5t6.5 15.5v1102q0 9 -6.5 15t-15.5 6h-414q-15 0 -23.5 -6.5t-12.5 -14.5q-4 -9 -5 -20v-1104z" />
<glyph unicode="&#xd1;" horiz-adv-x="1115" d="M820 1376q0 9 7 15t16 6h104q20 0 21 -21v-1356q0 -20 -21 -20h-104q-9 0 -16 5.5t-7 14.5v720q0 8 -8 9h-96q-9 0 -16 6.5t-7 15.5v106q0 8 -8 8h-111q-9 0 -14.5 6.5t-5.5 15.5v106q0 8 -8 8h-111q-9 0 -15.5 6.5t-6.5 15.5v106q0 8 -9 8h-101q-8 0 -8 -8v-1129 q0 -9 -6.5 -14.5t-16.5 -5.5h-104q-20 0 -21 20v1356q0 20 21 21h102q20 0 21 -21v-97q0 -8 8 -8h98q9 0 16 -6.5t7 -14.5v-85q0 -8 8 -8h112q9 0 14.5 -6.5t5.5 -15.5v-106q0 -8 8 -8h111q9 0 15.5 -6t6.5 -15v-107q0 -8 9 -8h102q8 0 8 8v483zM692 1622q5 0 5 4v76 q0 3 3.5 6t6.5 3h127q3 0 5 -3t2 -6v-74q0 -6 -7 -6h-128q-5 0 -5 -6v-75q0 -4 -3.5 -6t-6.5 -2h-125q-9 0 -9 8v75q0 6 -4 6h-130q-4 0 -5 -6v-75q0 -8 -9 -8h-127q-9 0 -9 8v71q0 10 9 10h128q5 0 5 4v76q0 3 2.5 6t5.5 3h130q3 0 4 -3t1 -6v-76q0 -4 6 -4h128v0z" />
<glyph unicode="&#xd2;" horiz-adv-x="1158" d="M182 0q-15 0 -25 10t-10 25v1227q0 19 13 34l67 88q12 12 29 13h720q15 0 25 -10.5t10 -24.5v-1227q0 -19 -13 -35l-67 -88q-12 -12 -29 -12h-720zM863 1258q0 12 -12 13h-544q-12 0 -12 -13v-1120q0 -12 12 -12h544q12 0 12 12v1120zM294 1715l232 -182h-232v182z" />
<glyph unicode="&#xd3;" horiz-adv-x="1158" d="M182 0q-15 0 -25 10t-10 25v1227q0 19 13 34l67 88q12 12 29 13h720q15 0 25 -10.5t10 -24.5v-1227q0 -19 -13 -35l-67 -88q-12 -12 -29 -12h-720zM863 1258q0 12 -12 13h-544q-12 0 -12 -13v-1120q0 -12 12 -12h544q12 0 12 12v1120zM862 1533h-232l232 182v-182z" />
<glyph unicode="&#xd4;" horiz-adv-x="1158" d="M182 0q-15 0 -25 10t-10 25v1227q0 19 13 34l67 88q12 12 29 13h720q15 0 25 -10.5t10 -24.5v-1227q0 -19 -13 -35l-67 -88q-12 -12 -29 -12h-720zM863 1258q0 12 -12 13h-544q-12 0 -12 -13v-1120q0 -12 12 -12h544q12 0 12 12v1120zM580 1679l-194 -153v182h386v-182z " />
<glyph unicode="&#xd5;" horiz-adv-x="1158" d="M182 0q-15 0 -25 10t-10 25v1227q0 19 13 34l67 88q12 12 29 13h720q15 0 25 -10.5t10 -24.5v-1227q0 -19 -13 -35l-67 -88q-12 -12 -29 -12h-720zM863 1258q0 12 -12 13h-544q-12 0 -12 -13v-1120q0 -12 12 -12h544q12 0 12 12v1120zM709 1622q5 0 5 4v76q0 3 3.5 6 t6.5 3h127q3 0 5 -3t2 -6v-74q0 -6 -7 -6h-128q-5 0 -5 -6v-75q0 -4 -3.5 -6t-6.5 -2h-125q-9 0 -9 8v75q0 6 -4 6h-130q-4 0 -5 -6v-75q0 -8 -9 -8h-127q-9 0 -9 8v71q0 10 9 10h128q5 0 5 4v76q0 3 2.5 6t5.5 3h130q3 0 4 -3t1 -6v-76q0 -4 6 -4h128v0z" />
<glyph unicode="&#xd6;" horiz-adv-x="1158" d="M182 0q-15 0 -25 10t-10 25v1227q0 19 13 34l67 88q12 12 29 13h720q15 0 25 -10.5t10 -24.5v-1227q0 -19 -13 -35l-67 -88q-12 -12 -29 -12h-720zM863 1258q0 12 -12 13h-544q-12 0 -12 -13v-1120q0 -12 12 -12h544q12 0 12 12v1120zM398 1631q0 6 5 11.5t13 5.5h79 q8 0 13.5 -5t5.5 -12v-80q0 -6 -5.5 -11.5t-13.5 -5.5h-79q-8 0 -13 5t-5 12v80zM632 1631q0 6 5.5 11.5t13.5 5.5h81q8 0 12.5 -5t4.5 -12v-80q0 -6 -4.5 -11.5t-12.5 -5.5h-81q-8 0 -13.5 5t-5.5 12v80z" />
<glyph unicode="&#xd7;" horiz-adv-x="978" d="M823 258q17 -13 0 -31l-59 -59q-6 -6 -14.5 -6t-14.5 6l-241 240q-3 7 -11 0l-239 -238q-13 -17 -31 0l-57 57q-6 6 -7.5 15.5t7.5 15.5l237 240q7 7 0 10l-239 242q-6 5 -6.5 13.5t6.5 14.5l59 60q8 8 16.5 7t14.5 -7l239 -240q6 -3 13 0l239 240q6 6 15.5 6t15.5 -6 l57 -58q8 -8 7 -16t-7 -14l-239 -240q-3 -6 0 -12z" />
<glyph unicode="&#xd8;" horiz-adv-x="1146" d="M289 379l516 801l72 92h-580q-8 0 -8 -8v-885zM270 125h580q8 0 8 8v885l-516 -801zM1042 1397q20 0 11 -21l-47 -94v-1262q0 -8 -7 -14t-16 -6h-879q-9 0 -12 6t2 14l47 95v1261q0 9 7 15t16 6h878z" />
<glyph unicode="&#xd9;" horiz-adv-x="1068" d="M168 0q-20 0 -21 20v1356q0 20 21 21h104q9 0 16 -6t7 -15v-1242q0 -8 8 -8h462q8 0 8 8v1242q0 20 21 21h104q9 0 16 -6t7 -15v-1241q0 -19 -13 -35l-67 -88q-12 -12 -29 -12h-644zM298 1715l232 -182h-232v182z" />
<glyph unicode="&#xda;" horiz-adv-x="1068" d="M168 0q-20 0 -21 20v1356q0 20 21 21h104q9 0 16 -6t7 -15v-1242q0 -8 8 -8h462q8 0 8 8v1242q0 20 21 21h104q9 0 16 -6t7 -15v-1241q0 -19 -13 -35l-67 -88q-12 -12 -29 -12h-644zM713 1533h-232l232 182v-182z" />
<glyph unicode="&#xdb;" horiz-adv-x="1068" d="M168 0q-20 0 -21 20v1356q0 20 21 21h104q9 0 16 -6t7 -15v-1242q0 -8 8 -8h462q8 0 8 8v1242q0 20 21 21h104q9 0 16 -6t7 -15v-1241q0 -19 -13 -35l-67 -88q-12 -12 -29 -12h-644zM507 1679l-194 -153v182h386v-182z" />
<glyph unicode="&#xdc;" horiz-adv-x="1068" d="M168 0q-20 0 -21 20v1356q0 20 21 21h104q9 0 16 -6t7 -15v-1242q0 -8 8 -8h462q8 0 8 8v1242q0 20 21 21h104q9 0 16 -6t7 -15v-1241q0 -19 -13 -35l-67 -88q-12 -12 -29 -12h-644zM343 1631q0 6 5 11.5t13 5.5h79q8 0 13.5 -5t5.5 -12v-80q0 -6 -5.5 -11.5t-13.5 -5.5 h-79q-8 0 -13 5t-5 12v80zM577 1631q0 6 5.5 11.5t13.5 5.5h81q8 0 12.5 -5t4.5 -12v-80q0 -6 -4.5 -11.5t-12.5 -5.5h-81q-8 0 -13.5 5t-5.5 12v80z" />
<glyph unicode="&#xdd;" horiz-adv-x="862" d="M91 1374q0 9 6.5 16t16.5 7h104q8 0 14.5 -7t6.5 -16v-475q0 -14 14 -14h359q5 0 9 4t4 10v475q0 9 6.5 16t15.5 7h104q8 0 14 -7t6 -16v-480q0 -19 -12 -35l-68 -88q-12 -12 -28 -12h-150q-8 0 -8 -8v-731q0 -8 -6 -14t-15 -6h-104q-9 0 -16 6t-7 14v731q0 8 -8 8h-149 q-16 0 -29 12l-68 88q-12 15 -12 35v480v0zM617 1533h-232l232 182v-182z" />
<glyph unicode="&#xde;" horiz-adv-x="1157" d="M295 397q0 -9 5.5 -15.5t14.5 -6.5h539q8 0 8 8v641q0 8 -8 8h-539q-9 0 -14.5 -6.5t-5.5 -15.5v-613zM147 1374q0 9 6 16t15 7h104q9 0 16 -7t7 -16v-309l61 80q9 12 27 12h606q8 0 14.5 -5.5t6.5 -14.5v-867q0 -8 -6.5 -14t-14.5 -6h-606q-17 0 -27 12l-61 80v-706 q0 -9 -6.5 -15.5t-16.5 -6.5h-104q-9 0 -15 6.5t-6 15.5v1738z" />
<glyph unicode="&#xdf;" horiz-adv-x="1100" d="M532 104q0 9 7 16t16 7h70q49 0 92 18.5t75 50.5t51 75.5t19 93.5v133q0 49 -19 92t-51 75t-75 51t-92 19h-105q-9 0 -15.5 7t-6.5 16v82q0 9 6.5 15.5t15.5 6.5h12q19 0 36.5 7.5t29.5 19.5t19.5 28.5t7.5 34.5v228q0 18 -7.5 34.5t-19.5 28.5t-29 19.5t-37 7.5h-237 v-1486q0 -9 -6.5 -16t-16.5 -7h-104q-8 0 -14.5 7t-6.5 16v1590q0 9 6.5 16t14.5 7h364q50 0 94 -19t76 -51.5t51 -76t19 -93.5v-182q0 -36 -9.5 -69t-27.5 -60q59 -17 110 -52.5t87.5 -84.5t57 -108.5t20.5 -125.5v-88q0 -80 -30.5 -150t-82.5 -122.5t-121.5 -83 t-148.5 -31.5h-72q-9 0 -16 6.5t-7 16.5v81z" />
<glyph unicode="&#xe0;" d="M593 0q-8 0 -14.5 6t-6.5 14v76l-65 -84q-11 -12 -27 -12h-366q-9 0 -16 6t-7 14v582q0 9 6.5 16t16.5 7h366q15 0 27 -15l61 -78v345q0 8 -8 8h-208q-9 0 -15.5 6t-6.5 14v85q0 9 6.5 15t15.5 6h343q8 0 14.5 -6t6.5 -15v-970q0 -8 -6.5 -14t-14.5 -6h-102zM239 134 q0 -8 8 -8h301q8 0 14 6.5t6 15.5v336q0 9 -6 15t-14 6h-301q-8 0 -8 -8v-363zM333 1339l232 -182h-232v182z" />
<glyph unicode="&#xe1;" d="M593 0q-8 0 -14.5 6t-6.5 14v76l-65 -84q-11 -12 -27 -12h-366q-9 0 -16 6t-7 14v582q0 9 6.5 16t16.5 7h366q15 0 27 -15l61 -78v345q0 8 -8 8h-208q-9 0 -15.5 6t-6.5 14v85q0 9 6.5 15t15.5 6h343q8 0 14.5 -6t6.5 -15v-970q0 -8 -6.5 -14t-14.5 -6h-102zM239 134 q0 -8 8 -8h301q8 0 14 6.5t6 15.5v336q0 9 -6 15t-14 6h-301q-8 0 -8 -8v-363zM569 1157h-232l232 182v-182z" />
<glyph unicode="&#xe2;" d="M593 0q-8 0 -14.5 6t-6.5 14v76l-65 -84q-11 -12 -27 -12h-366q-9 0 -16 6t-7 14v582q0 9 6.5 16t16.5 7h366q15 0 27 -15l61 -78v345q0 8 -8 8h-208q-9 0 -15.5 6t-6.5 14v85q0 9 6.5 15t15.5 6h343q8 0 14.5 -6t6.5 -15v-970q0 -8 -6.5 -14t-14.5 -6h-102zM239 134 q0 -8 8 -8h301q8 0 14 6.5t6 15.5v336q0 9 -6 15t-14 6h-301q-8 0 -8 -8v-363zM525 1304l-194 -153v182h386v-182z" />
<glyph unicode="&#xe3;" d="M593 0q-8 0 -14.5 6t-6.5 14v76l-65 -84q-11 -12 -27 -12h-366q-9 0 -16 6t-7 14v582q0 9 6.5 16t16.5 7h366q15 0 27 -15l61 -78v345q0 8 -8 8h-208q-9 0 -15.5 6t-6.5 14v85q0 9 6.5 15t15.5 6h343q8 0 14.5 -6t6.5 -15v-970q0 -8 -6.5 -14t-14.5 -6h-102zM239 134 q0 -8 8 -8h301q8 0 14 6.5t6 15.5v336q0 9 -6 15t-14 6h-301q-8 0 -8 -8v-363zM659 1246q5 0 5 4v76q0 3 3.5 6t6.5 3h127q3 0 5 -3t2 -6v-74q0 -6 -7 -6h-128q-5 0 -5 -6v-75q0 -4 -3.5 -6t-6.5 -2h-125q-9 0 -9 8v75q0 6 -4 6h-130q-4 0 -5 -6v-75q0 -8 -9 -8h-127 q-9 0 -9 8v71q0 10 9 10h128q5 0 5 4v76q0 3 2.5 6t5.5 3h130q3 0 4 -3t1 -6v-76q0 -4 6 -4h128v0z" />
<glyph unicode="&#xe4;" d="M593 0q-8 0 -14.5 6t-6.5 14v76l-65 -84q-11 -12 -27 -12h-366q-9 0 -16 6t-7 14v582q0 9 6.5 16t16.5 7h366q15 0 27 -15l61 -78v345q0 8 -8 8h-208q-9 0 -15.5 6t-6.5 14v85q0 9 6.5 15t15.5 6h343q8 0 14.5 -6t6.5 -15v-970q0 -8 -6.5 -14t-14.5 -6h-102zM239 134 q0 -8 8 -8h301q8 0 14 6.5t6 15.5v336q0 9 -6 15t-14 6h-301q-8 0 -8 -8v-363zM357 1254q0 6 5 11.5t13 5.5h79q8 0 13.5 -5t5.5 -12v-80q0 -6 -5.5 -11.5t-13.5 -5.5h-79q-8 0 -13 5t-5 12v80zM591 1254q0 6 5.5 11.5t13.5 5.5h81q8 0 12.5 -5t4.5 -12v-80q0 -6 -4.5 -11.5 t-12.5 -5.5h-81q-8 0 -13.5 5t-5.5 12v80z" />
<glyph unicode="&#xe5;" d="M422 1300q0 24 16.5 40.5t39.5 16.5h126q24 0 40 -16.5t16 -40.5v-125q0 -24 -16 -40.5t-40 -16.5h-126q-24 0 -40 16.5t-16 40.5v125zM486 1319q-8 0 -14.5 -6t-6.5 -16v-119q0 -8 6.5 -15t14.5 -7h110q9 0 15 6.5t6 15.5v119q0 9 -6 15.5t-15 6.5h-110zM593 0 q-8 0 -14.5 6t-6.5 14v76l-65 -84q-11 -12 -27 -12h-366q-9 0 -16 6t-7 14v582q0 9 6.5 16t16.5 7h366q15 0 27 -15l61 -78v345q0 8 -8 8h-208q-9 0 -15.5 6t-6.5 14v85q0 9 6.5 15t15.5 6h343q8 0 14.5 -6t6.5 -15v-970q0 -8 -6.5 -14t-14.5 -6h-102zM239 134q0 -8 8 -8 h301q8 0 14 6.5t6 15.5v336q0 9 -6 15t-14 6h-301q-8 0 -8 -8v-363z" />
<glyph unicode="&#xe6;" horiz-adv-x="1284" d="M91 602q0 9 6.5 16t16.5 7h366q8 0 15 -3.5t12 -11.5l61 -78v345q0 8 -8 8h-203q-9 0 -15.5 6t-6.5 14v85q0 9 6.5 15t15.5 6h815q8 0 14.5 -6t6.5 -15v-581q0 -9 -6 -16t-15 -7h-368q-16 0 -27 14l-61 78v-344q0 -8 8 -8h446q9 0 16 -5.5t7 -15.5v-85q0 -8 -6.5 -14 t-16.5 -6h-573q-9 0 -16 6t-7 14v70l-61 -78q-9 -12 -27 -12h-372q-9 0 -16 6t-7 14v582zM716 525q0 -8 6.5 -14t15.5 -6h299q8 0 9 8v364q0 8 -9 8h-313q-8 0 -8 -8v-352zM239 134q0 -8 8 -8h301q8 0 14 6.5t6 15.5v336q0 9 -6 15t-14 6h-301q-8 0 -8 -8v-363z" />
<glyph unicode="&#xe7;" horiz-adv-x="777" d="M147 876q0 19 13 34l67 88q12 12 29 13h400q20 0 21 -21v-85q0 -20 -21 -20h-353q-8 0 -8 -8v-743q0 -8 8 -8h363q8 0 14 -5.5t6 -15.5v-85q0 -9 -6 -14.5t-14 -5.5h-498q-20 0 -21 20v856zM513 -294q5 0 8.5 3.5t3.5 8.5v126q0 8 -8 9h-117q-9 0 -15.5 6t-6.5 14v168 h108v-41h-8q-8 0 -8 -8v-68q0 -8 8 -8h104q14 0 24.5 -9.5t10.5 -25.5v-210q0 -24 -16.5 -40.5t-40.5 -16.5h-316q-14 0 -14 14v11q0 10 8 18l56 43q9 6 20 6h199v0z" />
<glyph unicode="&#xe8;" d="M147 823v53q0 19 13 34l67 88q12 12 29 13h494q9 0 15.5 -6t6.5 -15v-581q0 -9 -6.5 -16t-15.5 -7h-367q-8 0 -15 3t-12 11l-61 78v-344q0 -8 8 -8h300q20 0 21 -21v-85q0 -20 -21 -20h-435q-20 0 -21 20v803zM295 525q0 -20 20 -20h301q8 0 9 8v364q0 8 -9 8h-313 q-8 0 -8 -8v-352zM292 1339l232 -182h-232v182z" />
<glyph unicode="&#xe9;" d="M147 823v53q0 19 13 34l67 88q12 12 29 13h494q9 0 15.5 -6t6.5 -15v-581q0 -9 -6.5 -16t-15.5 -7h-367q-8 0 -15 3t-12 11l-61 78v-344q0 -8 8 -8h300q20 0 21 -21v-85q0 -20 -21 -20h-435q-20 0 -21 20v803zM295 525q0 -20 20 -20h301q8 0 9 8v364q0 8 -9 8h-313 q-8 0 -8 -8v-352zM623 1157h-232l232 182v-182z" />
<glyph unicode="&#xea;" d="M147 823v53q0 19 13 34l67 88q12 12 29 13h494q9 0 15.5 -6t6.5 -15v-581q0 -9 -6.5 -16t-15.5 -7h-367q-8 0 -15 3t-12 11l-61 78v-344q0 -8 8 -8h300q20 0 21 -21v-85q0 -20 -21 -20h-435q-20 0 -21 20v803zM295 525q0 -20 20 -20h301q8 0 9 8v364q0 8 -9 8h-313 q-8 0 -8 -8v-352zM459 1304l-194 -153v182h386v-182z" />
<glyph unicode="&#xeb;" d="M147 823v53q0 19 13 34l67 88q12 12 29 13h494q9 0 15.5 -6t6.5 -15v-581q0 -9 -6.5 -16t-15.5 -7h-367q-8 0 -15 3t-12 11l-61 78v-344q0 -8 8 -8h300q20 0 21 -21v-85q0 -20 -21 -20h-435q-20 0 -21 20v803zM295 525q0 -20 20 -20h301q8 0 9 8v364q0 8 -9 8h-313 q-8 0 -8 -8v-352zM290 1254q0 6 5 11.5t13 5.5h79q8 0 13.5 -5t5.5 -12v-80q0 -6 -5.5 -11.5t-13.5 -5.5h-79q-8 0 -13 5t-5 12v80zM524 1254q0 6 5.5 11.5t13.5 5.5h81q8 0 12.5 -5t4.5 -12v-80q0 -6 -4.5 -11.5t-12.5 -5.5h-81q-8 0 -13.5 5t-5.5 12v80z" />
<glyph unicode="&#xec;" horiz-adv-x="442" d="M147 884q-13 1 -26 10l-74 59q-12 9 -12 23v16q0 8 5 13.5t13 5.5h219q9 0 16 -6t7 -15v-970q0 -9 -6.5 -14.5t-16.5 -5.5h-104q-20 0 -21 20v864zM67 1339l232 -182h-232v182z" />
<glyph unicode="&#xed;" horiz-adv-x="442" d="M147 884q-13 1 -26 10l-74 59q-12 9 -12 23v16q0 8 5 13.5t13 5.5h219q9 0 16 -6t7 -15v-970q0 -9 -6.5 -14.5t-16.5 -5.5h-104q-20 0 -21 20v864zM373 1157h-232l232 182v-182z" />
<glyph unicode="&#xee;" horiz-adv-x="442" d="M147 884q-13 1 -26 10l-74 59q-12 9 -12 23v16q0 8 5 13.5t13 5.5h219q9 0 16 -6t7 -15v-970q0 -9 -6.5 -14.5t-16.5 -5.5h-104q-20 0 -21 20v864zM222 1305l-194 -153v182h386v-182z" />
<glyph unicode="&#xef;" horiz-adv-x="442" d="M147 884q-13 1 -26 10l-74 59q-12 9 -12 23v16q0 8 5 13.5t13 5.5h219q9 0 16 -6t7 -15v-970q0 -9 -6.5 -14.5t-16.5 -5.5h-104q-20 0 -21 20v864zM54 1254q0 6 5 11.5t13 5.5h79q8 0 13.5 -5t5.5 -12v-80q0 -6 -5.5 -11.5t-13.5 -5.5h-79q-8 0 -13 5t-5 12v80zM288 1254 q0 6 5.5 11.5t13.5 5.5h81q8 0 12.5 -5t4.5 -12v-80q0 -6 -4.5 -11.5t-12.5 -5.5h-81q-8 0 -13.5 5t-5.5 12v80z" />
<glyph unicode="&#xf0;" horiz-adv-x="935" d="M625 864q0 9 -7 15t-16 6h-299q-8 0 -8 -8v-744q0 -8 8 -8h299q9 0 16 6t7 14v719zM532 1512q0 9 7 15t16 6h195q9 0 15.5 -5.5t6.5 -15.5v-148l35 25q5 5 14.5 6.5t18.5 1.5h84q12 0 12 -4v-1q0 -1 -2 -3l-148 -105q-8 -5 -11 -11.5t-3 -15.5v-1237q0 -9 -6.5 -15.5 t-15.5 -6.5h-105q-9 0 -14.5 6.5t-5.5 15.5v70l-64 -78q-5 -6 -11.5 -10t-14.5 -4h-367q-9 0 -15 6.5t-6 15.5v967q0 9 6 16t15 7h367q8 0 14.5 -3t11.5 -12l64 -77v272l-37 -25q-5 -3 -14.5 -5.5t-18.5 -2.5h-82q-14 0 -14 4l4 4l145 105q16 10 17 28v143q0 8 -9 8h-61 q-9 0 -16 6.5t-7 15.5v41z" />
<glyph unicode="&#xf1;" horiz-adv-x="919" d="M750 1011q9 0 15.5 -6t6.5 -15v-970q0 -8 -6.5 -14t-15.5 -6h-105q-9 0 -14.5 6t-5.5 14v857q0 8 -9 8h-301q-9 0 -14.5 -7t-5.5 -16v-842q0 -8 -6.5 -14t-16.5 -6h-104q-9 0 -15 6t-6 14v970q0 20 21 21h98q9 0 16 -6t7 -15v-69l61 77q9 12 27 13h373zM618 1246q5 0 5 4 v76q0 3 3.5 6t6.5 3h127q3 0 5 -3t2 -6v-74q0 -6 -7 -6h-128q-5 0 -5 -6v-75q0 -4 -3.5 -6t-6.5 -2h-125q-9 0 -9 8v75q0 6 -4 6h-130q-4 0 -5 -6v-75q0 -8 -9 -8h-127q-9 0 -9 8v71q0 10 9 10h128q5 0 5 4v76q0 3 2.5 6t5.5 3h130q3 0 4 -3t1 -6v-76q0 -4 6 -4h128v0z" />
<glyph unicode="&#xf2;" horiz-adv-x="919" d="M147 877q0 19 13 34l67 88q12 12 29 13h494q9 0 15.5 -6t6.5 -15v-969q0 -8 -6.5 -14.5t-15.5 -6.5h-582q-9 0 -15 6t-6 15v855zM295 135q0 -8 8 -8h313q8 0 9 8v743q0 8 -9 8h-313q-8 0 -8 -8v-743zM293 1339l232 -182h-232v182z" />
<glyph unicode="&#xf3;" horiz-adv-x="919" d="M147 877q0 19 13 34l67 88q12 12 29 13h494q9 0 15.5 -6t6.5 -15v-969q0 -8 -6.5 -14.5t-15.5 -6.5h-582q-9 0 -15 6t-6 15v855zM295 135q0 -8 8 -8h313q8 0 9 8v743q0 8 -9 8h-313q-8 0 -8 -8v-743zM624 1157h-232l232 182v-182z" />
<glyph unicode="&#xf4;" horiz-adv-x="919" d="M147 877q0 19 13 34l67 88q12 12 29 13h494q9 0 15.5 -6t6.5 -15v-969q0 -8 -6.5 -14.5t-15.5 -6.5h-582q-9 0 -15 6t-6 15v855zM295 135q0 -8 8 -8h313q8 0 9 8v743q0 8 -9 8h-313q-8 0 -8 -8v-743zM450 1304l-194 -153v182h386v-182z" />
<glyph unicode="&#xf5;" horiz-adv-x="919" d="M147 877q0 19 13 34l67 88q12 12 29 13h494q9 0 15.5 -6t6.5 -15v-969q0 -8 -6.5 -14.5t-15.5 -6.5h-582q-9 0 -15 6t-6 15v855zM295 135q0 -8 8 -8h313q8 0 9 8v743q0 8 -9 8h-313q-8 0 -8 -8v-743zM590 1246q5 0 5 4v76q0 3 3.5 6t6.5 3h127q3 0 5 -3t2 -6v-74 q0 -6 -7 -6h-128q-5 0 -5 -6v-75q0 -4 -3.5 -6t-6.5 -2h-125q-9 0 -9 8v75q0 6 -4 6h-130q-4 0 -5 -6v-75q0 -8 -9 -8h-127q-9 0 -9 8v71q0 10 9 10h128q5 0 5 4v76q0 3 2.5 6t5.5 3h130q3 0 4 -3t1 -6v-76q0 -4 6 -4h128v0z" />
<glyph unicode="&#xf6;" horiz-adv-x="919" d="M147 877q0 19 13 34l67 88q12 12 29 13h494q9 0 15.5 -6t6.5 -15v-969q0 -8 -6.5 -14.5t-15.5 -6.5h-582q-9 0 -15 6t-6 15v855zM295 135q0 -8 8 -8h313q8 0 9 8v743q0 8 -9 8h-313q-8 0 -8 -8v-743zM291 1254q0 6 5 11.5t13 5.5h79q8 0 13.5 -5t5.5 -12v-80 q0 -6 -5.5 -11.5t-13.5 -5.5h-79q-8 0 -13 5t-5 12v80zM525 1254q0 6 5.5 11.5t13.5 5.5h81q8 0 12.5 -5t4.5 -12v-80q0 -6 -4.5 -11.5t-12.5 -5.5h-81q-8 0 -13.5 5t-5.5 12v80z" />
<glyph unicode="&#xf7;" horiz-adv-x="806" d="M302 891q0 22 15 36.5t36 14.5h113q22 0 36.5 -15t14.5 -36v-113q0 -20 -15 -35.5t-36 -15.5h-113q-22 0 -36.5 15.5t-14.5 35.5v113zM302 221q0 22 15 36.5t36 14.5h113q22 0 36.5 -14.5t14.5 -36.5v-115q0 -20 -15 -34.5t-36 -14.5h-113q-22 0 -36.5 14.5t-14.5 34.5 v115zM91 543q0 9 6.5 14.5t16.5 5.5h581q8 0 14.5 -5.5t6.5 -14.5v-79q0 -8 -6.5 -14.5t-14.5 -6.5h-581q-9 0 -16 6.5t-7 14.5v79z" />
<glyph unicode="&#xf8;" horiz-adv-x="919" d="M314 126h310v584l-238 -492zM293 885v-584l237 492l72 92h-309zM145 989q0 9 7 15t16 6h600q12 0 12 -11q0 -6 -2 -10l-8 -16v-953q0 -8 -6 -14t-14 -6h-603q-8 0 -11.5 6t1.5 14l8 17v952z" />
<glyph unicode="&#xf9;" horiz-adv-x="885" d="M738 20q0 -20 -20 -20h-101q-9 0 -15.5 5.5t-6.5 14.5v70l-61 -78q-9 -12 -27 -12h-339q-20 0 -21 20v970q0 20 21 21h104q9 0 16 -6t7 -15v-856q0 -8 8 -8h267q9 0 15 6.5t6 15.5v842q0 9 6.5 15t15.5 6h105q20 0 20 -21v-970zM293 1339l232 -182h-232v182z" />
<glyph unicode="&#xfa;" horiz-adv-x="885" d="M738 20q0 -20 -20 -20h-101q-9 0 -15.5 5.5t-6.5 14.5v70l-61 -78q-9 -12 -27 -12h-339q-20 0 -21 20v970q0 20 21 21h104q9 0 16 -6t7 -15v-856q0 -8 8 -8h267q9 0 15 6.5t6 15.5v842q0 9 6.5 15t15.5 6h105q20 0 20 -21v-970zM577 1157h-232l232 182v-182z" />
<glyph unicode="&#xfb;" horiz-adv-x="885" d="M738 20q0 -20 -20 -20h-101q-9 0 -15.5 5.5t-6.5 14.5v70l-61 -78q-9 -12 -27 -12h-339q-20 0 -21 20v970q0 20 21 21h104q9 0 16 -6t7 -15v-856q0 -8 8 -8h267q9 0 15 6.5t6 15.5v842q0 9 6.5 15t15.5 6h105q20 0 20 -21v-970zM433 1304l-194 -153v182h386v-182z" />
<glyph unicode="&#xfc;" horiz-adv-x="885" d="M738 20q0 -20 -20 -20h-101q-9 0 -15.5 5.5t-6.5 14.5v70l-61 -78q-9 -12 -27 -12h-339q-20 0 -21 20v970q0 20 21 21h104q9 0 16 -6t7 -15v-856q0 -8 8 -8h267q9 0 15 6.5t6 15.5v842q0 9 6.5 15t15.5 6h105q20 0 20 -21v-970zM266 1254q0 6 5 11.5t13 5.5h79 q8 0 13.5 -5t5.5 -12v-80q0 -6 -5.5 -11.5t-13.5 -5.5h-79q-8 0 -13 5t-5 12v80zM500 1254q0 6 5.5 11.5t13.5 5.5h81q8 0 12.5 -5t4.5 -12v-80q0 -6 -4.5 -11.5t-12.5 -5.5h-81q-8 0 -13.5 5t-5.5 12v80z" />
<glyph unicode="&#xfd;" horiz-adv-x="898" d="M618 135q-5 -9 -17 -9h-80q-8 0 -8 -8v-98q0 -9 -6.5 -14.5t-16.5 -5.5h-103q-20 0 -20 20v98q0 8 -9 8h-83q-9 0 -15.5 5.5t-6.5 14.5v84q0 8 -8 9h-99q-9 0 -14.5 6.5t-5.5 15.5v727q0 9 5.5 16t14.5 7h105q9 0 15.5 -7t6.5 -16v-741q0 -8 9 -8h77q9 0 15 -6.5t6 -14.5 v-84q0 -8 8 -8h100q8 0 9 8v84q0 8 6.5 14.5t15.5 6.5h76q8 0 8 8v743q0 5 3 10q5 10 18 11h106q20 0 21 -21v-1354q0 -9 -6 -15.5t-15 -6.5h-346q-8 0 -13 5t-5 13v17q0 13 12 22l74 60q8 5 14.5 7.5t15.5 2.5h131q8 0 9 8v384l-4 2v0zM599 1157h-232l232 182v-182z" />
<glyph unicode="&#xfe;" horiz-adv-x="919" d="M295 148q0 -9 5.5 -15.5t14.5 -6.5h301q8 0 9 8v743q0 8 -9 8h-301q-9 0 -14.5 -7t-5.5 -16v-714zM147 1376q0 20 21 21h104q9 0 16 -6t7 -15v-458l61 79q9 12 27 13h367q9 0 15.5 -6t6.5 -15v-969q0 -8 -6.5 -14t-15.5 -6h-367q-17 0 -27 12l-61 80v-456 q0 -9 -6.5 -15.5t-16.5 -6.5h-104q-9 0 -15 6.5t-6 15.5v1740z" />
<glyph unicode="&#xff;" horiz-adv-x="898" d="M618 135q-5 -9 -17 -9h-80q-8 0 -8 -8v-98q0 -9 -6.5 -14.5t-16.5 -5.5h-103q-20 0 -20 20v98q0 8 -9 8h-83q-9 0 -15.5 5.5t-6.5 14.5v84q0 8 -8 9h-99q-9 0 -14.5 6.5t-5.5 15.5v727q0 9 5.5 16t14.5 7h105q9 0 15.5 -7t6.5 -16v-741q0 -8 9 -8h77q9 0 15 -6.5t6 -14.5 v-84q0 -8 8 -8h100q8 0 9 8v84q0 8 6.5 14.5t15.5 6.5h76q8 0 8 8v743q0 5 3 10q5 10 18 11h106q20 0 21 -21v-1354q0 -9 -6 -15.5t-15 -6.5h-346q-8 0 -13 5t-5 13v17q0 13 12 22l74 60q8 5 14.5 7.5t15.5 2.5h131q8 0 9 8v384l-4 2v0zM268 1254q0 6 5 11.5t13 5.5h79 q8 0 13.5 -5t5.5 -12v-80q0 -6 -5.5 -11.5t-13.5 -5.5h-79q-8 0 -13 5t-5 12v80zM502 1254q0 6 5.5 11.5t13.5 5.5h81q8 0 12.5 -5t4.5 -12v-80q0 -6 -4.5 -11.5t-12.5 -5.5h-81q-8 0 -13.5 5t-5.5 12v80z" />
<glyph unicode="&#x131;" horiz-adv-x="442" d="M147 884q-13 1 -26 10l-74 59q-12 9 -12 23v16q0 8 5 13.5t13 5.5h219q9 0 16 -6t7 -15v-970q0 -9 -6.5 -14.5t-16.5 -5.5h-104q-20 0 -21 20v864z" />
<glyph unicode="&#x152;" horiz-adv-x="1556" d="M1010 793l82 63q5 3 10.5 5.5t11.5 2.5h113q9 0 15.5 -6.5t6.5 -15.5v-82q0 -9 -6.5 -16t-15.5 -7h-195q-9 0 -15.5 -6t-6.5 -14v76zM1010 134q0 -8 8 -8h483q20 0 21 -21v-85q0 -8 -6 -14t-15 -6h-1333q-8 0 -14.5 6t-6.5 14v1356q0 9 6.5 15t14.5 6h1298q20 0 21 -21 v-84q0 -8 -5.5 -14t-15.5 -6h-448q-8 0 -8 -8v-1130zM295 134q0 -8 8 -8h551q8 0 8 8v1130q0 8 -8 8h-551q-8 0 -8 -8v-1130z" />
<glyph unicode="&#x153;" horiz-adv-x="1286" d="M1195 409q0 -9 -6.5 -16t-16.5 -7h-366q-16 0 -27 14l-61 78v-344q0 -8 8 -8h446q20 0 21 -21v-85q0 -8 -5.5 -14t-15.5 -6h-1058q-9 0 -16 6t-7 14v969q0 9 6.5 15t16.5 6h1058q9 0 16 -6t7 -15v-580zM239 134q0 -8 8 -8h313q8 0 8 8v743q0 8 -8 8h-313q-8 0 -8 -8v-743 zM718 526q0 -8 5.5 -14t14.5 -6h301q8 0 9 8v363q0 8 -9 8h-313q-8 0 -8 -8v-351z" />
<glyph unicode="&#x178;" horiz-adv-x="862" d="M91 1374q0 9 6.5 16t16.5 7h104q8 0 14.5 -7t6.5 -16v-475q0 -14 14 -14h359q5 0 9 4t4 10v475q0 9 6.5 16t15.5 7h104q8 0 14 -7t6 -16v-480q0 -19 -12 -35l-68 -88q-12 -12 -28 -12h-150q-8 0 -8 -8v-731q0 -8 -6 -14t-15 -6h-104q-9 0 -16 6t-7 14v731q0 8 -8 8h-149 q-16 0 -29 12l-68 88q-12 15 -12 35v480v0zM267 1633q0 6 5 11.5t13 5.5h79q8 0 13.5 -5t5.5 -12v-80q0 -6 -5.5 -11.5t-13.5 -5.5h-79q-8 0 -13 5t-5 12v80zM501 1633q0 6 5.5 11.5t13.5 5.5h81q8 0 12.5 -5t4.5 -12v-80q0 -6 -4.5 -11.5t-12.5 -5.5h-81q-8 0 -13.5 5 t-5.5 12v80z" />
<glyph unicode="&#x2c6;" horiz-adv-x="568" d="M285 1304l-194 -153v182h386v-182z" />
<glyph unicode="&#x2dc;" horiz-adv-x="568" d="M419 1246q5 0 5 4v76q0 3 3.5 6t6.5 3h127q3 0 5 -3t2 -6v-74q0 -6 -7 -6h-128q-5 0 -5 -6v-75q0 -4 -3.5 -6t-6.5 -2h-125q-9 0 -9 8v75q0 6 -4 6h-130q-4 0 -5 -6v-75q0 -8 -9 -8h-127q-9 0 -9 8v71q0 10 9 10h128q5 0 5 4v76q0 3 2.5 6t5.5 3h130q3 0 4 -3t1 -6v-76 q0 -4 6 -4h128v0z" />
<glyph unicode="&#x2000;" horiz-adv-x="867" />
<glyph unicode="&#x2001;" horiz-adv-x="1734" />
<glyph unicode="&#x2002;" horiz-adv-x="867" />
<glyph unicode="&#x2003;" horiz-adv-x="1734" />
<glyph unicode="&#x2004;" horiz-adv-x="578" />
<glyph unicode="&#x2005;" horiz-adv-x="433" />
<glyph unicode="&#x2006;" horiz-adv-x="289" />
<glyph unicode="&#x2007;" horiz-adv-x="289" />
<glyph unicode="&#x2008;" horiz-adv-x="216" />
<glyph unicode="&#x2009;" horiz-adv-x="346" />
<glyph unicode="&#x200a;" horiz-adv-x="96" />
<glyph unicode="&#x2010;" horiz-adv-x="737" d="M56 547q0 9 7 15.5t16 6.5h581q8 0 14.5 -6.5t6.5 -15.5v-82q0 -9 -6 -16t-15 -7h-581q-9 0 -16 7t-7 16v82z" />
<glyph unicode="&#x2011;" horiz-adv-x="737" d="M56 547q0 9 7 15.5t16 6.5h581q8 0 14.5 -6.5t6.5 -15.5v-82q0 -9 -6 -16t-15 -7h-581q-9 0 -16 7t-7 16v82z" />
<glyph unicode="&#x2012;" horiz-adv-x="737" d="M56 547q0 9 7 15.5t16 6.5h581q8 0 14.5 -6.5t6.5 -15.5v-82q0 -9 -6 -16t-15 -7h-581q-9 0 -16 7t-7 16v82z" />
<glyph unicode="&#x2013;" horiz-adv-x="1509" d="M56 545q0 9 7 15.5t16 6.5h1354q8 0 14 -6.5t6 -15.5v-82q0 -9 -6 -16t-14 -7h-1354q-9 0 -16 7t-7 16v82z" />
<glyph unicode="&#x2014;" horiz-adv-x="1689" d="M56 545q0 9 7 15.5t16 6.5h1532q9 0 15.5 -6.5t6.5 -15.5v-82q0 -9 -6.5 -16t-15.5 -7h-1532q-9 0 -16 7t-7 16v82z" />
<glyph unicode="&#x2018;" horiz-adv-x="294" d="M91 1213l148 189v-189h-148z" />
<glyph unicode="&#x2019;" horiz-adv-x="294" d="M204 1397l-148 -189v189h148z" />
<glyph unicode="&#x201a;" horiz-adv-x="344" d="M91 -292l240 303v-303h-240z" />
<glyph unicode="&#x201c;" horiz-adv-x="478" d="M91 1213l148 189v-189h-148zM296 1213l148 189v-189h-148z" />
<glyph unicode="&#x201d;" horiz-adv-x="478" d="M182 1397l-148 -189v189h148zM387 1397l-148 -189v189h148z" />
<glyph unicode="&#x201e;" horiz-adv-x="737" d="M147 -292l240 303v-303h-240zM463 -292l240 303v-303h-240z" />
<glyph unicode="&#x2022;" horiz-adv-x="534" d="M147 569q0 24 17 40t40 16h125q25 0 41.5 -16t16.5 -40v-128q0 -24 -16.5 -39.5t-41.5 -15.5h-125q-24 0 -40.5 16t-16.5 39v128z" />
<glyph unicode="&#x2026;" horiz-adv-x="1349" d="M40.0186 164.939q0 21.6309 15.3223 36.0518t36.0527 14.4209h112.663q22.5322 0 37.4043 -14.4209q14.8711 -14.4209 14.8711 -36.0518v-115.367q0 -21.6318 -14.8711 -35.6016q-14.8721 -13.9707 -37.4043 -13.9707h-112.663q-21.6318 0 -36.5029 14.4209 q-14.8721 14.4209 -14.8721 35.1514v115.367zM427.019 164.939q0 21.6309 15.3223 36.0518t36.0527 14.4209h112.663q22.5322 0 37.4043 -14.4209q14.8711 -14.4209 14.8711 -36.0518v-115.367q0 -21.6318 -14.8711 -35.6016q-14.8721 -13.9707 -37.4043 -13.9707h-112.663 q-21.6318 0 -36.5029 14.4209q-14.8721 14.4209 -14.8721 35.1514v115.367zM815.019 164.939q0 21.6309 15.3223 36.0518t36.0527 14.4209h112.663q22.5322 0 37.4043 -14.4209q14.8711 -14.4209 14.8711 -36.0518v-115.367q0 -21.6318 -14.8711 -35.6016 q-14.8721 -13.9707 -37.4043 -13.9707h-112.663q-21.6318 0 -36.5029 14.4209q-14.8721 14.4209 -14.8721 35.1514v115.367z" />
<glyph unicode="&#x202f;" horiz-adv-x="346" />
<glyph unicode="&#x2039;" horiz-adv-x="458" d="M189 625l211 -267h-253v534h255z" />
<glyph unicode="&#x203a;" horiz-adv-x="458" d="M56 892h255v-534h-253l211 267z" />
<glyph unicode="&#x205f;" horiz-adv-x="433" />
<glyph unicode="&#x20ac;" horiz-adv-x="885" d="M70 366q0 9 6.5 14.5t15.5 5.5h70q8 0 8 8v103q0 8 -8 8h-96q-9 0 -16 6.5t-7 15.5l-8 74q0 9 6.5 16t15.5 7h105q8 0 8 8v358q0 9 6 15t14 6h582q9 0 16 -6t7 -15v-85q0 -8 -7 -14t-16 -6h-446q-8 0 -9 -8v-233q0 -8 6.5 -14t14.5 -6h188q9 0 15 -7t6 -16l8 -82 q0 -9 -5.5 -15.5t-14.5 -6.5h-115q-6 0 -11 2.5t-10 5.5l-82 63v-159q0 -9 6.5 -16t14.5 -7h336q20 0 20 -20l8 -84q0 -8 -5.5 -14.5t-14.5 -6.5h-262q-12 0 -21 8l-82 64v-199q0 -8 9 -8h473q9 0 15.5 -5.5t6.5 -15.5l8 -85q0 -8 -6.5 -14t-15.5 -6h-617q-8 0 -14 6t-6 14 v241q0 8 -8 8h-62q-9 0 -15.5 6.5t-6.5 14.5z" />
<glyph unicode="&#x2122;" horiz-adv-x="1169" d="M268 1021q0 -10 -10 -10h-53q-3 0 -6.5 2.5t-3.5 7.5v549q0 4 -5 4h-145q-10 0 -10 10v41q0 10 10 10h375q10 0 10 -10v-41q0 -10 -10 -10h-148q-4 0 -4 -4v-549zM799 1453q4 0 4 4v49q0 5 3.5 8t6.5 3h57q4 0 4 4v49q0 10 11 10h61q2 0 2 4v41q0 5 3.5 7.5t9.5 2.5h49 q5 0 8.5 -2.5t3.5 -7.5v-604q0 -5 -3.5 -7.5t-8.5 -2.5h-52q-10 0 -10 10v491q0 4 -4 5h-63q-4 0 -4 -5v-47q0 -5 -3 -8.5t-8 -3.5h-57q-4 0 -4 -4v-252q0 -10 -10 -10h-52q-5 0 -8.5 2.5t-3.5 7.5v252q0 4 -4 4h-55q-5 0 -7.5 3.5t-2.5 8.5v47q0 4 -5 5h-63q-4 0 -4 -5 v-491q0 -10 -10 -10h-54q-10 0 -10 10v604q0 10 10 10h52q10 0 10 -10v-41q0 -4 4 -4h61q10 0 11 -10v-49q0 -4 4 -4h57q3 0 6.5 -3t3.5 -8v-49q0 -4 4 -4h60z" />
<glyph unicode="&#x25fc;" horiz-adv-x="1008" d="M0 1009h1009v-1009h-1009v1009z" />
</font>
</defs>
</svg>
